<?xml version="1.0" encoding="UTF-8" standalone="no"?>
<svg
   xmlns:dc="http://purl.org/dc/elements/1.1/"
   xmlns:cc="http://creativecommons.org/ns#"
   xmlns:rdf="http://www.w3.org/1999/02/22-rdf-syntax-ns#"
   xmlns:svg="http://www.w3.org/2000/svg"
   xmlns="http://www.w3.org/2000/svg"
   xmlns:sodipodi="http://sodipodi.sourceforge.net/DTD/sodipodi-0.dtd"
   xmlns:inkscape="http://www.inkscape.org/namespaces/inkscape"
   id="457bf273-24a3-4fd8-a857-e9b918267d6a"
   data-name="Layer 1"
   width="698"
   height="698"
   viewBox="0 0 698 698"
   version="1.1"
   sodipodi:docname="undraw_profile_pic.svg"
   inkscape:version="1.0.2 (e86c870879, 2021-01-15, custom)">
  <metadata
     id="metadata44">
    <rdf:RDF>
      <cc:Work
         rdf:about="">
        <dc:format>image/svg+xml</dc:format>
        <dc:type
           rdf:resource="http://purl.org/dc/dcmitype/StillImage" />
      </cc:Work>
    </rdf:RDF>
  </metadata>
  <sodipodi:namedview
     pagecolor="#ffffff"
     bordercolor="#666666"
     borderopacity="1"
     objecttolerance="10"
     gridtolerance="10"
     guidetolerance="10"
     inkscape:pageopacity="0"
     inkscape:pageshadow="2"
     inkscape:window-width="1920"
     inkscape:window-height="1050"
     id="namedview42"
     showgrid="false"
     inkscape:zoom="0.89452047"
     inkscape:cx="193.30683"
     inkscape:cy="378.95988"
     inkscape:window-x="0"
     inkscape:window-y="0"
     inkscape:window-maximized="1"
     inkscape:current-layer="457bf273-24a3-4fd8-a857-e9b918267d6a" />
  <defs
     id="defs9">
    <linearGradient
       id="b247946c-c62f-4d08-994a-4c3d64e1e98f"
       x1="349"
       y1="698"
       x2="349"
       gradientUnits="userSpaceOnUse">
      <stop
         offset="0"
         stop-color="gray"
         stop-opacity="0.25"
         id="stop2" />
      <stop
         offset="0.49830908"
         stop-color="gray"
         stop-opacity="0.12"
         id="stop4" />
      <stop
         offset="1"
         stop-color="gray"
         stop-opacity="0.1"
         id="stop6" />
    </linearGradient>
  </defs>
  <title
     id="title11">profile pic</title>
  <path
     d="M601,790.76a340,340,0,0,0,187.79-56.2c-12.59-68.8-60.5-72.72-60.5-72.72H464.09s-45.21,3.71-59.33,67A340.07,340.07,0,0,0,601,790.76Z"
     transform="translate(-251 -101)"
     fill="#6c63ff"
     id="path19"
     style="fill:#fd7a33;fill-opacity:1" />
  <circle
     cx="346.37"
     cy="339.57"
     r="164.9"
     fill="#333"
     id="circle21" />
  <path
     d="M293.15,476.92H398.81a0,0,0,0,1,0,0v84.53A52.83,52.83,0,0,1,346,614.28h0a52.83,52.83,0,0,1-52.83-52.83V476.92a0,0,0,0,1,0,0Z"
     opacity="0.1"
     id="path23" />
  <path
     d="M296.5,473h99a3.35,3.35,0,0,1,3.35,3.35v81.18A52.83,52.83,0,0,1,346,610.37h0a52.83,52.83,0,0,1-52.83-52.83V476.35A3.35,3.35,0,0,1,296.5,473Z"
     fill="#fdb797"
     id="path25" />
  <path
     d="M544.34,617.82a152.07,152.07,0,0,0,105.66.29v-13H544.34Z"
     transform="translate(-251 -101)"
     opacity="0.1"
     id="path27" />
  <circle
     cx="346.37"
     cy="372.44"
     r="151.45"
     fill="#fdb797"
     id="circle29" />
  <path
     d="M489.49,335.68S553.32,465.24,733.37,390l-41.92-65.73-74.31-26.67Z"
     transform="translate(-251 -101)"
     opacity="0.1"
     id="path31" />
  <path
     d="M489.49,333.78s63.83,129.56,243.88,54.3l-41.92-65.73-74.31-26.67Z"
     transform="translate(-251 -101)"
     fill="#333"
     id="path33" />
  <path
     d="M488.93,325a87.49,87.49,0,0,1,21.69-35.27c29.79-29.45,78.63-35.66,103.68-69.24,6,9.32,1.36,23.65-9,27.65,24-.16,51.81-2.26,65.38-22a44.89,44.89,0,0,1-7.57,47.4c21.27,1,44,15.4,45.34,36.65.92,14.16-8,27.56-19.59,35.68s-25.71,11.85-39.56,14.9C608.86,369.7,462.54,407.07,488.93,325Z"
     transform="translate(-251 -101)"
     fill="#333"
     id="path35" />
  <ellipse
     cx="194.86"
     cy="372.3"
     rx="14.09"
     ry="26.42"
     fill="#fdb797"
     id="ellipse37" />
  <ellipse
     cx="497.8"
     cy="372.3"
     rx="14.09"
     ry="26.42"
     fill="#fdb797"
     id="ellipse39" />
</svg>
