<?xml version="1.0" encoding="UTF-8" standalone="no"?>
<svg
   xmlns:dc="http://purl.org/dc/elements/1.1/"
   xmlns:cc="http://creativecommons.org/ns#"
   xmlns:rdf="http://www.w3.org/1999/02/22-rdf-syntax-ns#"
   xmlns:svg="http://www.w3.org/2000/svg"
   xmlns="http://www.w3.org/2000/svg"
   xmlns:sodipodi="http://sodipodi.sourceforge.net/DTD/sodipodi-0.dtd"
   xmlns:inkscape="http://www.inkscape.org/namespaces/inkscape"
   width="1000"
   height="700"
   viewBox="0 0 264.58333 185.20834"
   version="1.1"
   id="svg8"
   inkscape:version="1.0.2 (e86c870879, 2021-01-15)">
  <defs
     id="defs2">
    <linearGradient
       id="ae8f1d99-169f-42eb-bca8-084a90728b1c"
       x1="815.82"
       y1="804.15"
       x2="815.82"
       y2="292.5"
       gradientUnits="userSpaceOnUse">
      <stop
         offset="0"
         stop-color="gray"
         stop-opacity="0.25"
         id="stop2" />
      <stop
         offset="0.54"
         stop-color="gray"
         stop-opacity="0.12"
         id="stop4" />
      <stop
         offset="1"
         stop-color="gray"
         stop-opacity="0.1"
         id="stop6" />
    </linearGradient>
  </defs>
  <sodipodi:namedview
     id="base"
     pagecolor="#ffffff"
     bordercolor="#666666"
     borderopacity="1.0"
     inkscape:pageopacity="0.0"
     inkscape:pageshadow="2"
     inkscape:zoom="0.668"
     inkscape:cx="559.86344"
     inkscape:cy="433.72637"
     inkscape:document-units="mm"
     inkscape:current-layer="layer1"
     inkscape:document-rotation="0"
     showgrid="false"
     units="px"
     inkscape:window-width="1920"
     inkscape:window-height="1050"
     inkscape:window-x="1920"
     inkscape:window-y="0"
     inkscape:window-maximized="1" />
  <metadata
     id="metadata5">
    <rdf:RDF>
      <cc:Work
         rdf:about="">
        <dc:format>image/svg+xml</dc:format>
        <dc:type
           rdf:resource="http://purl.org/dc/dcmitype/StillImage" />
        <dc:title></dc:title>
      </cc:Work>
    </rdf:RDF>
  </metadata>
  <g
     inkscape:label="Layer 1"
     inkscape:groupmode="layer"
     id="layer1">
    <g
       id="g1074"
       transform="matrix(0.27671693,0,0,0.27028122,50.07981,32.499136)">
      <path
         d="m 862.452,235.62 h -607 a 8.72766,8.72766 0 0 0 -8.71972,8.72 v 411.32 a 8.72766,8.72766 0 0 0 8.71972,8.72 h 607 a 8.71244,8.71244 0 0 0 6.63037,-3.06 2.0459,2.0459 0 0 0 0.18995,-0.24 8.1667,8.1667 0 0 0 1.25,-2.11005 8.50722,8.50722 0 0 0 0.65966,-3.31 V 244.34 a 8.72953,8.72953 0 0 0 -8.72998,-8.72 z m 6.24024,420.04 a 6.17527,6.17527 0 0 1 -1.03028,3.42 6.44588,6.44588 0 0 1 -2.35986,2.12 6.1843,6.1843 0 0 1 -2.8501,0.69 h -607 a 6.23757,6.23757 0 0 1 -6.23,-6.23 V 244.34 a 6.23757,6.23757 0 0 1 6.23,-6.23 h 607 a 6.23944,6.23944 0 0 1 6.24024,6.23 z"
         transform="translate(-246.73231,-235.62)"
         fill="#3f3d56"
         id="path2" />
      <rect
         x="1.24265"
         y="34.949211"
         width="621.95679"
         height="2.49281"
         fill="#3f3d56"
         id="rect4" />
      <circle
         cx="22.431549"
         cy="18.6961"
         r="7.4784398"
         fill="#3f3d56"
         id="circle6" />
      <circle
         cx="43.93206"
         cy="18.6961"
         r="7.4784398"
         fill="#3f3d56"
         id="circle8" />
      <circle
         cx="65.432571"
         cy="18.6961"
         r="7.4784398"
         fill="#3f3d56"
         id="circle10" />
      <path
         d="m 321.78393,427.36614 h -22 a 4.505,4.505 0 0 1 -4.5,-4.5 v -22 a 4.505,4.505 0 0 1 4.5,-4.5 h 22 a 4.505,4.505 0 0 1 4.5,4.5 v 22 a 4.505,4.505 0 0 1 -4.5,4.5 z"
         transform="translate(-246.73231,-235.62)"
         fill="#6c63ff"
         id="path12" />
      <path
         d="m 321.78393,484.36614 h -22 a 4.505,4.505 0 0 1 -4.5,-4.5 v -22 a 4.505,4.505 0 0 1 4.5,-4.5 h 22 a 4.505,4.505 0 0 1 4.5,4.5 v 22 a 4.505,4.505 0 0 1 -4.5,4.5 z"
         transform="translate(-246.73231,-235.62)"
         fill="#3f3d56"
         id="path14" />
      <path
         d="m 321.78393,541.36614 h -22 a 4.505,4.505 0 0 1 -4.5,-4.5 v -22 a 4.505,4.505 0 0 1 4.5,-4.5 h 22 a 4.505,4.505 0 0 1 4.5,4.5 v 22 a 4.505,4.505 0 0 1 -4.5,4.5 z"
         transform="translate(-246.73231,-235.62)"
         fill="#ccc"
         id="path16"
         style="fill:#4c8076;fill-opacity:1" />
      <path
         d="m 465.78393,416.36614 h -106 a 4.5,4.5 0 1 1 0,-9 h 106 a 4.5,4.5 0 0 1 0,9 z"
         transform="translate(-246.73231,-235.62)"
         fill="#cccccc"
         id="path18" />
      <path
         d="m 465.78393,473.36614 h -106 a 4.5,4.5 0 1 1 0,-9 h 106 a 4.5,4.5 0 0 1 0,9 z"
         transform="translate(-246.73231,-235.62)"
         fill="#cccccc"
         id="path20" />
      <path
         d="m 465.78393,530.36614 h -106 a 4.5,4.5 0 1 1 0,-9 h 106 a 4.5,4.5 0 0 1 0,9 z"
         transform="translate(-246.73231,-235.62)"
         fill="#cccccc"
         id="path22" />
      <path
         d="m 834.53589,470.86614 c 0.1582,-2.64728 0.248,-5.31293 0.248,-8 a 132.00012,132.00012 0 0 0 -132,-132 v 140 z"
         transform="translate(-246.73231,-235.62)"
         fill="#6c63ff"
         id="path43" />
      <path
         d="m 692.78393,482.86614 v -140 a 132,132 0 1 0 131.752,140 z"
         transform="translate(-246.73231,-235.62)"
         fill="#3f3d56"
         id="path45" />
      <path
         style="fill:#fd7a33;stroke-width:0.573487"
         d="m 433.26907,370.36012 c -16.84574,-1.86984 -32.09926,-6.37431 -46.73915,-13.80238 -38.928,-19.75154 -65.15966,-56.91825 -71.20419,-100.88671 -0.95111,-6.9184 -0.95352,-26.22386 -0.004,-32.97547 1.09881,-7.81414 3.38616,-17.57351 5.91407,-25.23341 2.82357,-8.55577 10.07159,-23.41507 15.04632,-30.84675 19.78931,-29.56298 49.70874,-49.61467 84.37037,-56.54416 7.00429,-1.40028 15.50596,-2.35973 20.90965,-2.35973 h 4.03701 v 69.96536 69.96535 h 66.00726 66.00726 l -0.37872,3.58429 c -1.78085,16.85467 -5.81939,30.95101 -13.18519,46.0223 -18.94076,38.75501 -55.36038,65.42982 -98.66532,72.2654 -6.79077,1.07191 -25.61274,1.56767 -32.11525,0.84591 z"
         id="path54" />
      <path
         style="fill:#fd7a33;stroke-width:0.573487"
         d="M 456.49527,165.34691 V 95.668294 h 3.75027 c 13.73264,0 33.11711,4.297385 47.54556,10.540476 28.917,12.51219 51.46464,33.70785 65.6556,61.71883 4.8359,9.54539 7.64317,16.9618 10.10703,26.70129 2.6798,10.59312 3.68031,17.91523 4.08978,29.9305 l 0.35668,10.46613 h -65.75246 -65.75246 z"
         id="path56" />
      <path
         style="fill:#fd7a33;stroke-width:0.573487"
         d="m 432.40884,370.03019 c -0.78854,-0.14458 -3.88537,-0.65538 -6.88184,-1.13511 -37.44285,-5.9946 -71.03384,-28.36484 -91.14886,-60.70147 -9.99909,-16.07439 -17.09928,-36.88949 -19.03792,-55.81203 -0.81177,-7.92342 -0.28965,-26.89046 0.92769,-33.70043 5.13708,-28.73747 19.14395,-55.36597 39.01923,-74.17959 23.33664,-22.09007 51.97508,-34.43001 84.7204,-36.50494 l 5.59149,-0.35431 v 69.99995 69.99996 h 65.89638 65.89638 l -0.27601,2.43732 c -0.67184,5.93278 -2.66984,16.97533 -3.99747,22.09325 -4.1337,15.93518 -12.98218,33.90499 -23.26215,47.24163 -20.11673,26.09831 -50.04839,43.95054 -83.04612,49.53142 -5.2568,0.88908 -31.03457,1.70162 -34.4012,1.08435 z"
         id="path58" />
      <path
         style="fill:#091220;fill-opacity:1;stroke-width:0.573487"
         d="m 50.154004,190.0329 c -1.407613,-1.40762 -1.407649,-1.40798 -1.407649,-13.78975 0,-16.52954 -1.323087,-15.19739 15.093986,-15.19739 11.553647,0 12.367914,0.0702 13.789743,1.18859 l 1.511057,1.1886 v 12.8202 12.8202 l -1.511057,1.1886 c -1.421829,1.11841 -2.236096,1.18859 -13.789743,1.18859 -12.271984,0 -12.279457,-7.6e-4 -13.686337,-1.40764 z"
         id="path60" />
      <path
         style="fill:#091220;fill-opacity:1;stroke-width:0.573487"
         d="m 428.10769,369.43335 c -43.06693,-6.50138 -80.04758,-33.0185 -99.17203,-71.11172 -4.27108,-8.50738 -7.02613,-15.6694 -9.56783,-24.87251 -3.36846,-12.19667 -4.23674,-19.15164 -4.23687,-33.93758 -1.3e-4,-14.68277 0.41289,-18.62001 3.14766,-30.00617 2.6566,-11.06073 4.74679,-16.75897 10.30774,-28.10084 7.02241,-14.32261 13.21536,-23.10795 23.99116,-34.03397 23.60799,-23.93709 52.53735,-36.96688 87.43002,-39.37851 l 5.30475,-0.36665 v 70.00842 70.0084 h 66.01776 66.01776 l -0.40097,3.87104 c -0.66328,6.40337 -3.05702,18.43338 -4.82126,24.2298 -14.55375,47.81625 -52.34702,82.4806 -100.66497,92.33085 -11.54756,2.35412 -32.42683,3.00884 -43.35292,1.35944 z"
         id="path885" />
      <path
         style="fill:#091220;fill-opacity:1;stroke-width:0.573487"
         d="m 50.180071,247.06874 c -1.077108,-1.07711 -1.146973,-1.91162 -1.146973,-13.70015 0,-11.50086 0.09182,-12.66666 1.095301,-13.90704 1.081273,-1.33654 1.254028,-1.35612 13.489342,-1.52896 l 12.394041,-0.17508 1.708051,1.70805 1.708051,1.70805 v 12.01 c 0,11.28181 -0.07207,12.10161 -1.188597,13.52104 l -1.188597,1.51106 H 64.188867 c -12.097174,0 -12.930012,-0.0682 -14.008796,-1.14697 z"
         id="path887" />
      <path
         style="fill:#fd7a33;fill-opacity:1;stroke-width:0.573487"
         d="m 54.931852,191.05144 c -2.997131,-0.2002 -3.749405,-0.47404 -4.731264,-1.72227 -1.082733,-1.37647 -1.16749,-2.28776 -1.16749,-12.55254 0,-6.08757 0.245716,-11.71459 0.546035,-12.50449 1.023468,-2.69193 2.29405,-2.94296 14.661606,-2.89671 10.019442,0.0375 11.679319,0.17353 13.046818,1.06955 l 1.56684,1.02664 v 12.77153 c 0,12.72593 -0.0048,12.77465 -1.330498,13.64331 -1.414096,0.92655 -15.379958,1.64671 -22.592047,1.16498 z"
         id="path889" />
    </g>
  </g>
</svg>
