<?xml version="1.0" encoding="UTF-8" standalone="no"?>
<svg
   xmlns:dc="http://purl.org/dc/elements/1.1/"
   xmlns:cc="http://creativecommons.org/ns#"
   xmlns:rdf="http://www.w3.org/1999/02/22-rdf-syntax-ns#"
   xmlns:svg="http://www.w3.org/2000/svg"
   xmlns="http://www.w3.org/2000/svg"
   xmlns:sodipodi="http://sodipodi.sourceforge.net/DTD/sodipodi-0.dtd"
   xmlns:inkscape="http://www.inkscape.org/namespaces/inkscape"
   width="1000"
   height="700"
   viewBox="0 0 264.58333 185.20834"
   version="1.1"
   id="svg8"
   inkscape:version="1.0.2 (e86c870879, 2021-01-15)">
  <defs
     id="defs2">
    <linearGradient
       id="ae8f1d99-169f-42eb-bca8-084a90728b1c"
       x1="815.82"
       y1="804.15"
       x2="815.82"
       y2="292.5"
       gradientUnits="userSpaceOnUse">
      <stop
         offset="0"
         stop-color="gray"
         stop-opacity="0.25"
         id="stop2" />
      <stop
         offset="0.54"
         stop-color="gray"
         stop-opacity="0.12"
         id="stop4" />
      <stop
         offset="1"
         stop-color="gray"
         stop-opacity="0.1"
         id="stop6" />
    </linearGradient>
  </defs>
  <sodipodi:namedview
     id="base"
     pagecolor="#ffffff"
     bordercolor="#666666"
     borderopacity="1.0"
     inkscape:pageopacity="0.0"
     inkscape:pageshadow="2"
     inkscape:zoom="0.668"
     inkscape:cx="559.86344"
     inkscape:cy="433.72637"
     inkscape:document-units="mm"
     inkscape:current-layer="layer1"
     inkscape:document-rotation="0"
     showgrid="false"
     units="px"
     inkscape:window-width="1920"
     inkscape:window-height="1050"
     inkscape:window-x="1920"
     inkscape:window-y="0"
     inkscape:window-maximized="1" />
  <metadata
     id="metadata5">
    <rdf:RDF>
      <cc:Work
         rdf:about="">
        <dc:format>image/svg+xml</dc:format>
        <dc:type
           rdf:resource="http://purl.org/dc/dcmitype/StillImage" />
        <dc:title></dc:title>
      </cc:Work>
    </rdf:RDF>
  </metadata>
  <g
     inkscape:label="Layer 1"
     inkscape:groupmode="layer"
     id="layer1">
    <g
       id="g910"
       transform="matrix(0.26458333,0,0,0.26458333,-7.0027105,1.6741741)">
      <path
         d="m 589.16248,567.82068 c -2.11,-4.8 -4.11,-10.32 -2,-15.12 a 12.85,12.85 0 0 1 6.65,-6.25 32,32 0 0 1 9,-2.22 125.61,125.61 0 0 1 29.26,-0.4 c 0.71,5.62 -0.79,11.32 -2.08,16.75 -1.17,5 -1.84,5.74 -7,6 -3.34,0.18 -33.04,3.01 -33.83,1.24 z"
         fill="#fbbebe"
         id="path25" />
      <ellipse
         cx="678.21246"
         cy="495.44064"
         rx="143"
         ry="40"
         fill="#464353"
         id="ellipse27" />
      <ellipse
         cx="678.21246"
         cy="495.44064"
         rx="143"
         ry="40"
         opacity="0.1"
         id="ellipse29" />
      <path
         d="m 703.85248,284.28068 a 44.49,44.49 0 0 1 -22.94,20.84 57.58,57.58 0 0 1 -18.16,3.46 c -6.79,0.31 -13.72,-0.13 -20.1,-2.45 -8.56,-3.1 -15.67,-9.44 -21,-16.83 -5.33,-7.39 -9,-15.83 -12.19,-24.34 -1.68,-4.43 -3.28,-9.15 -2.49,-13.83 5.15,-1.17 10.79,-2.89 13.45,-7.46 2.27,-3.92 1.64,-8.62 0.33,-13.1 -0.37,-1.27 -0.8,-2.53 -1.23,-3.74 -1,-2.9 -4.45,-8.41 -2.05,-10.89 1.53,-1.57 7.94,-2.37 10.15,-3.39 6.81,-3.14 13.09,-7.68 20.57,-9.17 6.47,-1.29 13.15,-0.08 19.61,1.26 a 6.45,6.45 0 0 1 2.42,0.87 5.82,5.82 0 0 1 1.8,2.7 c 1.84,4.48 2.92,9.43 4.4,14.1 1.54,4.89 3.52,9.48 7.23,12.95 2.89,2.71 6.57,4.41 10.17,6.06 l 8.86,4.06 a 11.65,11.65 0 0 1 4.19,2.71 10.61,10.61 0 0 1 2,5.44 50.82,50.82 0 0 1 -5.02,30.75 z"
         fill="#fbbebe"
         id="path31" />
      <path
         d="m 676.38248,222.31068 a 46,46 0 0 1 -55.63,8.26 c -0.37,-1.27 -0.8,-2.53 -1.23,-3.74 -1,-2.9 -4.45,-8.41 -2.05,-10.89 1.53,-1.57 7.94,-2.37 10.15,-3.39 6.81,-3.14 13.09,-7.68 20.57,-9.17 6.47,-1.29 13.15,-0.08 19.61,1.26 a 6.45,6.45 0 0 1 2.42,0.87 5.82,5.82 0 0 1 1.8,2.7 c 1.8,4.48 2.88,9.43 4.36,14.1 z"
         opacity="0.1"
         id="path33" />
      <circle
         cx="643.21246"
         cy="188.44067"
         r="46"
         fill="#fbbebe"
         id="circle35" />
      <path
         d="m 783.36248,337.73068 -3.78,-22.9 c -1.91,-11.49 -3.88,-23.2 -9.22,-33.55 -3.51,-6.78 -9.08,-13.24 -16.59,-14.58 a 16.05,16.05 0 0 1 -4.32,-1 c -2.2,-1.06 -3.4,-3.44 -5.09,-5.2 -4.36,-4.52 -11.46,-4.59 -17.3,-6.89 -5.16,-2 -9.38,-5.85 -14.08,-8.79 -4.7,-2.94 -10.55,-5 -15.75,-3.12 -0.84,8.95 -1.73,18.1 -5.53,26.25 a 39.28,39.28 0 0 1 -59.26,14.76 c -8.91,-6.71 -14.62,-17.06 -17.28,-27.89 -0.65,-2.64 -1.39,-5.67 -3.82,-6.88 -2.63,-1.32 -5.79,0.28 -8,2.22 -4.05,3.59 -7.27,8.73 -12.53,9.94 -1.9,0.44 -4,0.35 -5.58,1.5 a 12.7,12.7 0 0 0 -2.6,3.37 12,12 0 0 1 -10.23,5.06 c -1.83,-0.09 -4,-0.51 -5.25,0.82 -0.93,1 -1,2.56 -2,3.49 -1.35,1.31 -3.54,0.67 -5.42,0.6 -3.56,-0.15 -6.87,2.13 -8.91,5 -2.04,2.87 -3,6.42 -4,9.86 10.93,24.34 20.93,48.71 31.86,73.05 a 6.23,6.23 0 0 1 0.79,3 7.31,7.31 0 0 1 -1.36,3 c -5.36,8.61 -5.19,19.44 -4.6,29.56 0.59,10.12 1.31,20.81 -3.21,29.88 -1.23,2.49 -2.83,4.77 -4,7.26 -2.74,5.64 -3.73,23.68 -2.13,29.74 h 226 c -4.31,-11.85 -2.67,-35.63 -1.77,-48.21 0.63,-8.8 -1,-17.59 -1.7,-26.39 -1.47,-17.97 -0.37,-35.02 -3.34,-52.96 z"
         fill="#f86d70"
         id="path37"
         style="fill:#fd7a33;fill-opacity:1" />
      <path
         d="m 794.93248,458.29068 c 3.33,-1.27 7,-0.81 10.57,-0.33 11.49,1.57 23.15,3.18 33.8,7.77 5,2.14 9.76,5 13.14,9.21 3,3.79 4.75,8.43 6.41,13 l 3.84,10.49 c 1.46,4 2.94,8.08 3.35,12.33 1.2,12.59 -7.41,24.46 -18.24,31 -10.83,6.54 -23.58,8.87 -36,11.31 -12.42,2.44 -24.89,5.14 -37.26,8 a 150,150 0 0 1 -17.53,3.45 c -13.24,1.5 -27.08,-0.71 -39.66,3.67 -5,1.75 -9.91,4.35 -15.1,5.56 a 93.93,93.93 0 0 1 -10.43,1.68 l -23.81,2.72 a 129.89,129.89 0 0 1 -14.6,1.12 c -10.4,0 -20.63,-2.46 -30.73,-4.92 a 7.77,7.77 0 0 1 -3,-1.21 c -1.6,-1.26 -1.95,-3.49 -2.18,-5.51 q -1.53,-13.41 -2.68,-26.85 c -0.24,-2.91 -0.42,-6.06 1.17,-8.51 2,-3 5.9,-3.94 9.46,-4.52 a 246.88,246.88 0 0 1 45.68,-3.17 c 5.81,-5.81 15.39,-5.84 23,-9 a 68.39,68.39 0 0 0 8.11,-4.41 106,106 0 0 1 44.51,-14.07 41.45,41.45 0 0 0 9.11,-1.3 c 5.89,-1.83 11.26,-6.81 17.31,-5.59 0.75,-2.07 1.27,-4.84 3,-6.26 0.86,-0.73 1.92,-1.22 2.71,-2 1.67,-1.69 1.82,-4.35 1.57,-6.71 -0.25,-2.36 -0.81,-4.78 -0.2,-7.08 a 9.79,9.79 0 0 1 1.11,-2.47 c 3.01,-5.26 7.54,-7.9 13.57,-7.4 z"
         fill="#464353"
         id="path39" />
      <path
         d="m 794.93248,458.29068 c 3.33,-1.27 7,-0.81 10.57,-0.33 11.49,1.57 23.15,3.18 33.8,7.77 5,2.14 9.76,5 13.14,9.21 3,3.79 4.75,8.43 6.41,13 l 3.84,10.49 c 1.46,4 2.94,8.08 3.35,12.33 1.2,12.59 -7.41,24.46 -18.24,31 -10.83,6.54 -23.58,8.87 -36,11.31 -12.42,2.44 -24.89,5.14 -37.26,8 a 150,150 0 0 1 -17.53,3.45 c -13.24,1.5 -27.08,-0.71 -39.66,3.67 -5,1.75 -9.91,4.35 -15.1,5.56 a 93.93,93.93 0 0 1 -10.43,1.68 l -23.81,2.72 a 129.89,129.89 0 0 1 -14.6,1.12 c -10.4,0 -20.63,-2.46 -30.73,-4.92 a 7.77,7.77 0 0 1 -3,-1.21 c -1.6,-1.26 -1.95,-3.49 -2.18,-5.51 q -1.53,-13.41 -2.68,-26.85 c -0.24,-2.91 -0.42,-6.06 1.17,-8.51 2,-3 5.9,-3.94 9.46,-4.52 a 246.88,246.88 0 0 1 45.68,-3.17 c 5.81,-5.81 15.39,-5.84 23,-9 a 68.39,68.39 0 0 0 8.11,-4.41 106,106 0 0 1 44.51,-14.07 41.45,41.45 0 0 0 9.11,-1.3 c 5.89,-1.83 11.26,-6.81 17.31,-5.59 0.75,-2.07 1.27,-4.84 3,-6.26 0.86,-0.73 1.92,-1.22 2.71,-2 1.67,-1.69 1.82,-4.35 1.57,-6.71 -0.25,-2.36 -0.81,-4.78 -0.2,-7.08 a 9.79,9.79 0 0 1 1.11,-2.47 c 3.01,-5.26 7.54,-7.9 13.57,-7.4 z"
         opacity="0.05"
         id="path41" />
      <path
         d="m 598.36248,574.00068 c -6.19,7.17 -11.64,9.73 -21.33,9.5 q -8.94,-0.21 -17.86,-0.93 a 100.2,100.2 0 0 0 -12.24,-0.57 c -12.34,0.48 -24.25,6.13 -36.56,5.14 a 25.92,25.92 0 0 1 -5.37,-1 15.63,15.63 0 0 1 -7.25,-4.41 c -2.36,-2.67 -3.49,-6.21 -4.14,-9.71 -3.29,-17.94 5.73,-37.48 21.52,-46.61 a 15.78,15.78 0 0 1 6.84,-2.43 16.21,16.21 0 0 1 6.92,1.52 l 0.15,0.06 a 52.33,52.33 0 0 1 17.14,11.44 9.66,9.66 0 0 0 2.62,2.11 9,9 0 0 0 3.09,0.58 l 13.14,0.83 a 31.14,31.14 0 0 1 6.6,0.91 52.46,52.46 0 0 1 6.94,3 c 7.07,3.16 14.91,4 22.55,5.22 a 3.37,3.37 0 0 1 2,0.8 3.13,3.13 0 0 1 0.62,1.3 25.51,25.51 0 0 1 -5.38,23.25 z"
         fill="#3f3d56"
         id="path43"
         style="fill:#091220;fill-opacity:1" />
      <path
         d="m 529.00248,524.56068 a 78.9,78.9 0 0 0 -13.15,16.44 82.28,82.28 0 0 0 -10.74,32.54 60.4,60.4 0 0 0 -0.11,12.61 15.63,15.63 0 0 1 -7.25,-4.42 c -2.36,-2.67 -3.49,-6.21 -4.14,-9.71 -3.29,-17.94 5.73,-37.48 21.52,-46.61 a 15.78,15.78 0 0 1 6.84,-2.43 16.21,16.21 0 0 1 6.92,1.52 z"
         opacity="0.1"
         id="path45" />
      <path
         d="m 783.49248,549.43068 c 7.35,-0.2 15.6,-0.57 21,4.38 5.15,4.68 5.83,12.4 6.17,19.35 l 0.39,8.07 c 0.12,2.46 0.22,5 -0.77,7.28 -1.76,4 -6.59,5.93 -11,5.7 -4.41,-0.23 -8.46,-2.16 -12.49,-3.9 a 175.7,175.7 0 0 0 -34,-10.71 q 0.57,-8.37 1.9,-16.66 c 0.61,-3.83 0.71,-10.24 3.27,-13.42 2.71,-3.36 6.24,-1.54 9.92,-0.92 a 79.63,79.63 0 0 0 15.61,0.83 z"
         fill="#fbbebe"
         id="path47" />
      <path
         d="m 589.27248,468.35068 c 0,1 -1.57,0 -1.71,-1.07 -1.1,-8.09 -7.52,-14.76 -15,-18 -7.48,-3.24 -16,-3.41 -24.1,-2.64 -12.25,1.16 -25.95,5.85 -30.48,17.3 -1.06,2.68 -1.54,5.58 -2.84,8.15 -1.44,2.82 -3.79,5.07 -5.35,7.81 -2.69,4.74 -2.8,10.55 -1.83,15.91 2.61,14.3 12.39,26.53 24.24,35 11.85,8.47 25.7,13.53 39.51,18.09 a 685.19,685.19 0 0 0 112,26.75 c 6.16,0.93 12.38,1.79 18.28,3.77 5.28,1.77 10.22,4.42 15.38,6.5 12,4.82 24.91,6.54 37.7,8.23 2.18,0.28 4.68,0.48 6.29,-1 2.08,-1.93 1.39,-5.29 0.8,-8.06 a 43.35,43.35 0 0 1 5.09,-30.74 c 2.14,-3.6 4.92,-7.29 4.52,-11.46 -0.48,-4.86 -5.32,-8.3 -10.14,-9.08 -4.82,-0.78 -9.72,0.37 -14.56,1 -1.67,0.22 -3.49,0.36 -5,-0.49 a 9.89,9.89 0 0 1 -1.94,-1.72 21.93,21.93 0 0 0 -25.54,-3.57 c -1.79,1 -4.5,-1.23 -6.36,-2.07 l -21.01,-9.53 c -24.16,-10.93 -48.44,-21.91 -74,-28.83 a 15.54,15.54 0 0 1 -5.7,-2.37 c -1.27,-1 -2.18,-2.36 -3.35,-3.47 -2.55,-2.41 -6.1,-3.37 -9.16,-5.08 -3.06,-1.71 -6.46,-5.9 -5.74,-9.33 z"
         fill="#464353"
         id="path49" />
      <path
         d="m 913.46248,599.04068 c -3.36,6.23 -9.88,10.11 -16.88,11.71 a 33.5,33.5 0 0 1 -5.34,0.76 c -8.85,0.55 -17.59,-1.9 -26.12,-4.32 l -11.58,-3.28 a 36.55,36.55 0 0 0 -6.1,-1.36 41.86,41.86 0 0 0 -8.44,0.29 149.59,149.59 0 0 1 -41,-1.84 7.23,7.23 0 0 1 -3.17,-1.13 15.75,15.75 0 0 1 -2.21,-2.71 c -3.15,-3.79 -6.54,-6 -2.81,-11 2.15,-2.9 6.14,-4.35 7.81,-7.68 1.67,-3.33 0.6,-8.06 -0.39,-11.5 -1.35,-4.75 -5.79,-6.8 -7.38,-11.16 -1.19,-3.29 0.81,-7.11 3.82,-8.9 3.01,-1.79 6.73,-1.93 10.2,-1.47 3.47,0.46 6.87,1.44 10.36,1.71 10.26,0.82 20.75,-4.47 30.6,-1.49 2.17,0.66 4.22,1.71 6.42,2.29 a 21.35,21.35 0 0 0 12.83,-1.11 c 1.44,-0.54 2.85,-1.19 4.25,-1.83 a 34.23,34.23 0 0 1 8.55,-3.09 c 9.61,-1.65 18.52,5 25.77,11.49 a 36.44,36.44 0 0 1 6.55,7.1 c 2,3.12 3.06,6.75 4,10.33 2.65,9.27 4.84,19.69 0.26,28.19 z"
         fill="#3f3d56"
         id="path51"
         style="fill:#091220;fill-opacity:1" />
      <path
         d="m 913.46248,599.04068 c -3.36,6.23 -9.88,10.11 -16.88,11.71 a 32.69,32.69 0 0 0 3.55,-17.16 c -0.6,-9.51 -4.78,-18.47 -10.11,-26.37 a 93.4,93.4 0 0 0 -11.14,-13.57 c -3.18,-3.2 -7.09,-5.74 -10.51,-8.67 a 34.23,34.23 0 0 1 8.55,-3.09 c 9.61,-1.65 18.52,5 25.77,11.49 a 36.44,36.44 0 0 1 6.55,7.1 c 2,3.12 3.06,6.75 4,10.33 2.61,9.31 4.8,19.73 0.22,28.23 z"
         opacity="0.1"
         id="path53" />
      <path
         d="m 611.43248,113.78068 c -3.36,2.43 -5.66,5.92 -8,9.27 -4.31,6.19 -9.19,12.37 -16.08,15.82 -2.61,1.31 -5.59,2.3 -7.32,4.58 a 12.34,12.34 0 0 0 -1.95,5.13 101.65,101.65 0 0 0 -2.06,19.6 c 0,3.28 0.14,6.66 1.59,9.64 1.37,2.8 3.84,5.17 4.35,8.22 0.39,2.38 -0.49,4.75 -0.8,7.14 -0.31,2.39 0.23,5.22 2.44,6.36 a 14.79,14.79 0 0 0 3.7,0.87 c 6.65,1.48 8.88,9.28 9.89,15.73 2.26,-0.13 3.28,-2.72 3.75,-4.83 l 6.93,-30.81 c 0.75,-3.34 2,-7.21 5.33,-8.38 2.23,-0.77 4.67,-0.05 7,0.15 9.15,0.75 16.89,-6.32 25.84,-8.27 a 33,33 0 0 1 8.71,-0.57 c 7.06,0.35 15.27,3.25 16.77,9.84 0.25,1.07 0.4,2.35 1.4,2.88 1,0.53 2,0.08 3.1,0 4.48,-0.45 7.12,4.59 8.41,8.71 l 4.7,15 c 0.7,2.27 1.88,4.94 4.34,5.23 2.27,0.28 4.2,-1.87 4.54,-4 0.34,-2.13 -0.4,-4.34 -0.89,-6.48 -2.21,-9.85 1.17,-19.93 3.23,-29.8 2.06,-9.87 2.43,-21.21 -4.48,-28.81 -2.51,-2.75 -5.81,-4.8 -8.15,-7.7 -2.18,-2.72 -3.41,-6.06 -5.67,-8.73 -6.25,-7.37 -22.28,-13.06 -32.11,-14 -11.19,-1.23 -29.43,1.62 -38.51,8.21 z"
         fill="#3f3d56"
         id="path55" />
      <g
         opacity="0.1"
         id="g63"
         transform="translate(-19.857526,-96.719329)">
        <path
           d="m 804.76,390.65 c -2.46,-0.3 -3.64,-3 -4.34,-5.23 q -2.35,-7.51 -4.7,-15 c -1.29,-4.13 -3.93,-9.17 -8.41,-8.71 -1,0.11 -2.18,0.52 -3.1,0 -0.92,-0.52 -1.15,-1.81 -1.4,-2.88 -1.5,-6.6 -9.71,-9.49 -16.77,-9.84 a 33.43,33.43 0 0 0 -8.71,0.57 c -9,2 -16.69,9 -25.84,8.27 -2.36,-0.19 -4.8,-0.91 -7,-0.14 -3.37,1.16 -4.58,5 -5.33,8.38 l -6.93,30.8 c -0.47,2.12 -1.49,4.71 -3.75,4.83 -1,-6.44 -3.24,-14.24 -9.89,-15.72 a 15.72,15.72 0 0 1 -3.7,-0.87 4.34,4.34 0 0 1 -1.93,-2.15 c -0.18,0.93 -0.39,1.86 -0.51,2.79 -0.3,2.38 0.23,5.22 2.44,6.36 a 14.79,14.79 0 0 0 3.7,0.87 c 6.65,1.48 8.88,9.28 9.89,15.73 2.26,-0.13 3.28,-2.72 3.75,-4.83 l 6.93,-30.81 c 0.75,-3.34 2,-7.21 5.33,-8.38 2.23,-0.77 4.67,-0.05 7,0.15 9.15,0.75 16.89,-6.32 25.84,-8.27 A 33,33 0 0 1 766,356 c 7.06,0.35 15.27,3.25 16.77,9.84 0.25,1.07 0.4,2.35 1.4,2.88 1,0.53 2,0.08 3.1,0 4.48,-0.45 7.12,4.59 8.41,8.71 q 2.34,7.51 4.7,15 c 0.7,2.27 1.88,4.94 4.34,5.23 2.27,0.28 4.2,-1.87 4.54,-4 a 13.58,13.58 0 0 0 -0.6,-5.31 4.13,4.13 0 0 1 -3.9,2.3 z"
           transform="translate(-91.39,-95.85)"
           id="path57" />
        <path
           d="m 693.22,371.61 c -0.51,-3.05 -3,-5.42 -4.35,-8.22 a 16.45,16.45 0 0 1 -1.48,-6 c 0,1.12 -0.1,2.24 -0.11,3.37 0,3.28 0.14,6.66 1.59,9.64 1.11,2.27 2.94,4.27 3.86,6.58 a 15.06,15.06 0 0 0 0.49,-5.37 z"
           transform="translate(-91.39,-95.85)"
           id="path59" />
        <path
           d="m 811.64,350.33 c -1.82,8.72 -4.66,17.6 -3.78,26.34 0.57,-6.45 2.45,-12.94 3.78,-19.34 a 51,51 0 0 0 1.16,-14.82 61.14,61.14 0 0 1 -1.16,7.82 z"
           transform="translate(-91.39,-95.85)"
           id="path61" />
      </g>
      <path
         d="m 585.91248,381.93068 c -1.21,19.86 -15.78,36.27 -21.33,55.37 -1.38,4.78 -2.21,9.74 -4.19,14.29 -4,9.15 -12.23,15.79 -21,20.47 a 31.54,31.54 0 0 1 -10.34,3.76 19.82,19.82 0 0 1 -19.91,-10.59 c -2.29,-4.65 -2.61,-10 -4,-15 -1.55,-5.77 -4.45,-11.09 -6.34,-16.76 -3.48,-10.43 -3.41,-21.85 -1,-32.57 a 100,100 0 0 1 10.73,-26.56 c 0.7,-1.23 1.41,-2.45 2.14,-3.66 a 83.18,83.18 0 0 1 6.93,-10 c 6,-7.23 13.71,-12.79 21.34,-18.27 a 5,5 0 0 1 2,-1 h 0.12 a 4.83,4.83 0 0 1 2.47,0.58 195.56,195.56 0 0 1 30.35,16.44 c 3.44,2.29 8.87,4.85 10.67,8.75 1.8,3.9 1.62,10.51 1.36,14.75 z"
         fill="#fbbebe"
         id="path65" />
      <path
         d="m 546.21248,290.54068 a 10.35,10.35 0 0 0 -2.22,3.55 167.86,167.86 0 0 0 -14.1,57.62 5.76,5.76 0 0 1 -0.65,2.79 12.21,12.21 0 0 1 -1.47,1.59 5.52,5.52 0 0 0 0.94,8 c 1.65,-3.11 5.6,-4.12 9.11,-4.39 16.81,-1.33 33.23,6.49 50.09,5.9 -1.19,-4.11 -2.9,-8.06 -3.87,-12.22 -4.29,-18.47 6.41,-38.58 -0.15,-56.37 -1.31,-3.56 -3.5,-7.06 -6.95,-8.62 a 18.51,18.51 0 0 0 -4.45,-1.18 c -4.26,-0.77 -12.74,-4.06 -16.86,-2.74 -1.52,0.49 -2.12,1.92 -3.38,2.78 -1.87,1.23 -4.41,1.66 -6.04,3.29 z"
         fill="#f86d70"
         id="path67"
         style="fill:#fd7a33;fill-opacity:1" />
      <path
         d="m 553.10248,455.89068 a 29.49,29.49 0 0 1 -25,14.51 19.7,19.7 0 0 1 -8,-1.47 c -6.39,-2.82 -10,-9.8 -11.34,-16.66 -1.34,-6.86 -0.92,-13.94 -1.87,-20.87 -0.76,-5.52 -2.38,-10.88 -3.22,-16.39 -2.06,-13.63 2,-27.09 4.89,-40.66 0.7,-1.23 1.41,-2.45 2.14,-3.66 a 83.18,83.18 0 0 1 6.93,-10 c 6,-7.23 13.71,-12.79 21.34,-18.27 h -8 a 1.37,1.37 0 0 1 2.17,0.95 c 0.79,7 10.66,14 12.81,20.8 1.33,4.18 2.93,8.28 4,12.54 a 100.47,100.47 0 0 1 1.92,11 q 2.13,15.53 4.24,31 c 1.77,12.59 3.29,26.2 -3.01,37.18 z"
         opacity="0.1"
         id="path69" />
      <path
         d="m 539.86248,324.59068 9.65,-30.27 c 1.44,-4.53 2.9,-9.13 3.07,-13.89 0.17,-4.76 -1.08,-9.75 -4.41,-13.15 -2.7,-2.75 -6.44,-4.17 -9.64,-6.32 -8,-5.39 -12,-14.83 -16.17,-23.52 -4.17,-8.69 -9.66,-17.78 -18.76,-21 -2.1,-0.74 -5,-0.8 -5.94,1.21 a 4.25,4.25 0 0 0 -0.15,2.62 c 0.88,4.62 4.19,8.31 7.07,12 4.83,6.25 8.87,13.9 7.71,21.72 -1.38,9.26 -9.7,16.44 -10.7,25.75 -0.44,4.1 0.61,8.21 0.6,12.34 0,2.56 -0.42,5.17 0.15,7.67 a 51.66,51.66 0 0 0 2.11,5.68 33.18,33.18 0 0 1 1.38,9.21 l 2.11,39.36 c 1.14,21.29 -10.41,42 -7.23,63 0.84,5.51 2.46,10.87 3.22,16.39 1,6.93 0.53,14 1.87,20.87 1.34,6.87 5,13.84 11.34,16.66 a 19.7,19.7 0 0 0 8,1.47 29.49,29.49 0 0 0 25,-14.51 c 6.3,-11 4.78,-24.59 3.06,-37.13 l -4.24,-31 a 100.47,100.47 0 0 0 -1.92,-11 c -1.06,-4.26 -2.66,-8.36 -4,-12.54 -4.29,-13.67 -7.5,-28.04 -3.18,-41.62 z"
         fill="#fbbebe"
         id="path71" />
      <rect
         x="581.71246"
         y="326.94067"
         width="223"
         height="142"
         rx="7.9699998"
         fill="#3f3d56"
         id="rect73" />
      <rect
         x="581.71246"
         y="326.94067"
         width="223"
         height="142"
         rx="7.9699998"
         opacity="0.2"
         id="rect75"
         style="fill:#091220;fill-opacity:1" />
      <circle
         cx="692.71246"
         cy="397.94067"
         r="6"
         fill="#ffffff"
         id="circle77" />
      <rect
         x="138.25247"
         y="82.930664"
         width="226"
         height="88"
         fill="#6c63ff"
         id="rect145"
         style="fill:#fd7a33;fill-opacity:1;stroke-width:1" />
      <rect
         x="138.25247"
         y="82.930664"
         width="371"
         height="88"
         rx="12"
         fill="none"
         stroke="#3f3d56"
         stroke-miterlimit="10"
         stroke-width="9"
         id="rect147" />
      <path
         d="m 341.51248,122.22068 a 18.1,18.1 0 0 0 -33.83,-4.79 14.48,14.48 0 0 0 1.57,28.88 h 31.42 a 12.11,12.11 0 0 0 12.08,-12.13 11.93,11.93 0 0 0 -11.24,-11.96 z m -13.89,7.13 v 9.18 h -7.74 v -9.18 h -8.21 l 12.08,-12.09 12.08,12.09 z"
         fill="#ffffff"
         id="path149" />
      <path
         style="fill:#091220;fill-opacity:1;stroke-width:0.29192"
         d="m 148.29901,175.11888 c -7.00562,-0.92947 -12.56177,-6.07606 -14.01087,-12.9781 -0.36272,-1.72765 -0.42981,-7.16673 -0.43409,-35.19569 -0.003,-22.57785 0.0959,-33.704755 0.31141,-34.884415 0.17406,-0.95268 0.82682,-2.82544 1.45059,-4.16168 2.14887,-4.60335 6.37813,-7.87338 11.58788,-8.95965 1.8495,-0.38563 22.70231,-0.42816 177.62289,-0.36227 l 175.52738,0.0747 1.61213,0.61824 c 6.15358,2.35989 10.03903,6.62227 11.25172,12.34322 0.33603,1.58527 0.40925,7.82358 0.41342,35.224665 0.004,22.37528 -0.0973,33.86642 -0.30692,35.03037 -0.17162,0.95268 -0.84672,2.84874 -1.50024,4.21347 -1.98928,4.15425 -5.67282,7.24887 -10.30243,8.65533 -1.68575,0.51212 -8.31886,0.53365 -176.61144,0.57317 -96.17295,0.0226 -175.6481,-0.0635 -176.61143,-0.19132 z m 351.93046,-9.07364 c 1.48295,-0.67446 3.11852,-2.19192 3.8639,-3.5849 l 0.63963,-1.19532 V 126.96446 92.663885 l -0.63125,-1.16768 c -0.74413,-1.37652 -2.17536,-2.78461 -3.60159,-3.54334 -0.99276,-0.52813 -5.9838,-0.54563 -176.02255,-0.61748 -157.01531,-0.0663 -175.1601,-0.0276 -176.55053,0.37656 -1.79856,0.52285 -3.60632,2.02214 -4.53887,3.76434 l -0.63568,1.1876 -0.0778,33.699885 c -0.0863,37.36514 -0.18984,35.23643 1.8295,37.59558 1.00631,1.17565 2.45633,2.03969 4.0867,2.4352 0.48166,0.11685 79.56272,0.19278 175.73567,0.16874 160.72467,-0.0402 174.94423,-0.082 175.90287,-0.51805 z"
         id="path979" />
      <path
         style="fill:#091220;fill-opacity:1;stroke-width:0.825674"
         d="m 587.93668,468.50912 c -0.96534,-0.20478 -2.63733,-1.31136 -3.71553,-2.45905 l -1.96038,-2.08673 v -65.96861 -65.96861 l 2.28927,-2.28936 2.28926,-2.28937 104.22264,-0.24431 c 73.28711,-0.17179 105.14267,0.0222 107.32225,0.6534 5.85591,1.69598 5.51694,-2.55473 5.59475,70.1588 0.0673,62.8784 0.007,65.64494 -1.47816,67.63392 -0.85158,1.1406 -2.46345,2.31856 -3.58193,2.61768 -2.24785,0.60118 -208.17564,0.83761 -210.98217,0.24224 z M 695.73185,403.4399 c 3.96442,-2.05008 4.58961,-6.72163 1.33509,-9.97615 -2.47677,-2.47676 -5.29697,-2.58546 -8.18291,-0.31538 -3.81189,2.99843 -2.70182,9.20226 1.95283,10.91375 1.95534,0.71896 2.41425,0.66063 4.89499,-0.62222 z"
         id="path981" />
    </g>
  </g>
</svg>
