<?xml version="1.0" encoding="UTF-8" standalone="no"?>
<svg
   xmlns:dc="http://purl.org/dc/elements/1.1/"
   xmlns:cc="http://creativecommons.org/ns#"
   xmlns:rdf="http://www.w3.org/1999/02/22-rdf-syntax-ns#"
   xmlns:svg="http://www.w3.org/2000/svg"
   xmlns="http://www.w3.org/2000/svg"
   xmlns:sodipodi="http://sodipodi.sourceforge.net/DTD/sodipodi-0.dtd"
   xmlns:inkscape="http://www.inkscape.org/namespaces/inkscape"
   id="ab8ae2a1-21db-4159-bb67-e2c62dcc19dc"
   data-name="Layer 1"
   width="867.93857"
   height="588.5"
   viewBox="0 0 867.93857 588.5"
   version="1.1"
   sodipodi:docname="undraw_order_delivered_p6ba.svg"
   inkscape:version="1.0.2 (e86c870879, 2021-01-15)">
  <metadata
     id="metadata55">
    <rdf:RDF>
      <cc:Work
         rdf:about="">
        <dc:format>image/svg+xml</dc:format>
        <dc:type
           rdf:resource="http://purl.org/dc/dcmitype/StillImage" />
      </cc:Work>
    </rdf:RDF>
  </metadata>
  <defs
     id="defs53" />
  <sodipodi:namedview
     pagecolor="#ffffff"
     bordercolor="#666666"
     borderopacity="1"
     objecttolerance="10"
     gridtolerance="10"
     guidetolerance="10"
     inkscape:pageopacity="0"
     inkscape:pageshadow="2"
     inkscape:window-width="1920"
     inkscape:window-height="1050"
     id="namedview51"
     showgrid="false"
     inkscape:zoom="1.0037065"
     inkscape:cx="299.49047"
     inkscape:cy="370.28348"
     inkscape:window-x="1920"
     inkscape:window-y="0"
     inkscape:window-maximized="1"
     inkscape:current-layer="ab8ae2a1-21db-4159-bb67-e2c62dcc19dc"
     inkscape:document-rotation="0" />
  <path
     d="M925.055,325.47994H809.02141c-15.70477-42.51261-22.52583-82.0414,0-111.71322A58.01672,58.01672,0,0,1,867.03813,155.75h.00012a57.94434,57.94434,0,0,1,47.293,24.40356c9.16871,12.877,11.00592,29.47655,5.74836,44.38425C910.7093,251.10718,916.43032,287.36181,925.055,325.47994Z"
     transform="translate(-166.03071 -155.75)"
     fill="#2f2e41"
     id="path2" />
  <path
     d="M986.33673,744.25h0a15.70205,15.70205,0,0,1-15.0077-11.0843l-4.78036-15.53616a23.1288,23.1288,0,0,1-.61965-11.10129l3.25577-17.209h22.83639l9.47609,35.14049A15.70206,15.70206,0,0,1,986.33673,744.25Z"
     transform="translate(-166.03071 -155.75)"
     fill="#2f2e41"
     id="path4" />
  <path
     d="M819.952,744.25h0a15.70206,15.70206,0,0,0,15.0077-11.0843l4.78035-15.53616a23.12867,23.12867,0,0,0,.61965-11.10129l-3.25576-17.209H814.26761l-9.47609,35.14049A15.70206,15.70206,0,0,0,819.952,744.25Z"
     transform="translate(-166.03071 -155.75)"
     fill="#2f2e41"
     id="path6" />
  <path
     d="M993.87275,691.17082h-25.3052L858.706,482.55729,838.438,691.17082H816.11921c-11.45007-131.36776-39.30814-256.49986,0-303.6623l91.96277,8.6408Z"
     transform="translate(-166.03071 -155.75)"
     fill="#2f2e41"
     id="path8" />
  <circle
     cx="697.92148"
     cy="59.86838"
     r="30.85999"
     fill="#9f616a"
     id="circle10" />
  <path
     d="M907.46478,334.42934H838.9556l-11.7268-54.31358c22.75118-6.72118,28.17526-22.35365,23.4536-43.204l37.032-2.4688c2.09887,16.7954,5.93889,32.4559,29.62559,35.18039Z"
     transform="translate(-166.03071 -155.75)"
     fill="#9f616a"
     id="path12" />
  <path
     d="M907.46478,402.32132c-38.8692,14.75815-70.48976,14.29779-92.58-6.172,9.96854-32.87311,10.56517-73.35384,6.172-117.88516l12.344-5.5548,4.3204,39.50079,61.10278-3.086,13.5784-43.204,13.57839,3.086C927.02154,322.57291,923.81334,370.76229,907.46478,402.32132Z"
     transform="translate(-166.03071 -155.75)"
     fill="#e6e6e6"
     id="path14"
     style="fill:#005246;fill-opacity:1" />
  <path
     d="M943.26236,468.97889l7.25707,23.58547a12.77544,12.77544,0,0,1-12.2105,16.53252h0a12.77544,12.77544,0,0,1-12.70628-14.103l2.84695-27.24942-11.7268-92.58,8.6408-40.73519h21.602Z"
     transform="translate(-166.03071 -155.75)"
     fill="#9f616a"
     id="path16" />
  <path
     d="M770.39935,464.07329,757.64619,485.199a12.77544,12.77544,0,0,0,7.843,18.99758h0a12.77544,12.77544,0,0,0,15.74359-10.60578l3.83732-27.12768,33.79955-86.98367,6.81613-41.65553-26.29294-5.19141Z"
     transform="translate(-166.03071 -155.75)"
     fill="#9f616a"
     id="path18" />
  <path
     d="M962.39556,339.36694l-40.73519-.6172v-70.978l6.27186.91465a29.98433,29.98433,0,0,1,25.52968,26.906Z"
     transform="translate(-166.03071 -155.75)"
     fill="#e6e6e6"
     id="path20"
     style="fill:#005246;fill-opacity:1" />
  <path
     d="M788.34522,346.77334l40.73518-.6172v-70.978l-6.27185.91465a29.98433,29.98433,0,0,0-25.52968,26.906Z"
     transform="translate(-166.03071 -155.75)"
     fill="#e6e6e6"
     id="path22"
     style="fill:#005246;fill-opacity:1" />
  <path
     d="M892.34338,200.80558c-13.10909,7.41716-38.302,10.8099-56.78238,5.5548L829.389,174.266h61.10278Z"
     transform="translate(-166.03071 -155.75)"
     fill="#2f2e41"
     id="path24" />
  <path
     d="M428.93606,716.81743l-3.47308-2.90485.25671,1.814S426.94693,716.1118,428.93606,716.81743Z"
     transform="translate(-166.03071 -155.75)"
     fill="none"
     id="path30" />
  <polygon
     points="488.026 430.784 493.376 416.518 543.307 387.986 577.189 380.853 488.026 430.784"
     fill="#fd7a33"
     id="polygon32" />
  <polygon
     points="304.352 430.784 299.002 416.518 249.071 387.986 215.189 380.853 304.352 430.784"
     fill="#fd7a33"
     id="polygon34" />
  <polygon
     points="491.593 434.35 300.785 434.35 284.736 359.454 507.642 359.454 491.593 434.35"
     fill="#fd7a33"
     id="polygon36" />
  <polygon
     points="491.593 434.35 300.785 434.35 284.736 359.454 507.642 359.454 491.593 434.35"
     opacity="0.1"
     style="isolation:isolate"
     id="polygon38" />
  <rect
     x="299.89341"
     y="429.89163"
     width="192.59109"
     height="158.10837"
     fill="#fd7a33"
     id="rect40" />
  <rect
     x="356.18896"
     y="462.25"
     width="80"
     height="25"
     fill="#fff"
     id="rect46" />
  <path
     style="fill:#fd7a33;fill-opacity:1;stroke-width:0.704496"
     d="m 300.09469,507.93333 v -77.49452 h 96.16365 96.16365 v 77.49452 77.49451 H 452.97024 413.51848 V 562.88398 540.34012 H 396.25834 378.9982 v 22.54386 22.54386 h -39.45176 -39.45175 z m 136.67215,-33.1113 v -12.68092 h -40.5085 -40.5085 v 12.68092 12.68092 h 40.5085 40.5085 z"
     id="path896" />
  <path
     style="fill:#fd7a33;fill-opacity:1;stroke-width:0.704496"
     d="m 299.81931,428.50145 c -0.20368,-0.67808 -1.03767,-4.56161 -1.8533,-8.63008 -1.5649,-7.80591 -11.74745,-55.58916 -12.42301,-58.29701 l -0.39546,-1.58511 h 111.0819 c 105.46146,0 111.06347,0.0624 110.71749,1.23286 -0.20043,0.67808 -3.08476,14.0723 -6.40961,29.76494 -3.32486,15.69264 -6.54279,30.83049 -7.15098,33.63967 l -1.10578,5.10759 H 396.2351 c -90.86113,0 -96.06545,-0.0665 -96.41579,-1.23286 z"
     id="path898" />
  <path
     style="fill:#fd7a33;fill-opacity:1;stroke-width:0.704496"
     d="m 494.15032,423.72002 c 1.24447,-8.29873 -0.3402,-6.95223 25.747,-21.87724 l 23.60061,-13.50238 13.93759,-2.95442 c 7.66568,-1.62493 14.24742,-2.85114 14.6261,-2.72492 0.53751,0.17917 -33.88674,19.72317 -74.98145,42.56991 l -3.44352,1.91444 z"
     id="path900" />
  <path
     style="fill:#fd7a33;fill-opacity:1;stroke-width:0.704496"
     d="m 259.01712,404.93661 c -21.62398,-12.11327 -38.9917,-22.13233 -38.59494,-22.26459 0.39676,-0.13225 6.99331,1.08903 14.65898,2.71396 l 13.9376,2.95442 23.6006,13.4967 23.6006,13.49669 1.24101,4.91065 c 0.68255,2.70086 1.15808,5.31692 1.05674,5.81348 -0.11304,0.55389 -15.37969,-7.60932 -39.50059,-21.12131 z"
     id="path902" />
  <path
     style="fill:#f7f7f7;stroke:none;stroke-width:0.996307;fill-opacity:1"
     d="m 649.56045,587.32741 c -1.65763,-0.48228 -4.52312,-2.43401 -6.36776,-4.33719 -5.25288,-5.4196 -5.19107,-9.56596 0.4539,-30.44753 2.58851,-9.57529 5.15373,-18.12592 5.70049,-19.00143 1.1659,-1.86689 -0.11995,-15.69347 -7.26917,-78.1643 -9.90322,-86.53559 -11.31569,-103.49765 -11.36619,-136.49409 -0.0533,-34.83297 0.51885,-38.2946 10.49598,-63.5017 4.39483,-11.10346 7.80015,-18.93708 7.56739,-17.40805 -0.34955,2.29626 0.29097,3.3597 3.68064,6.11085 18.55784,15.06214 47.84944,17.03691 81.91376,5.52243 4.79231,-1.6199 8.80356,-2.83556 8.9139,-2.70146 0.11034,0.1341 4.36695,14.59064 9.45915,32.12564 l 9.25853,31.88183 -1.56033,15.26383 c -1.06196,10.38855 -1.26067,16.34914 -0.62212,18.66178 1.18795,4.30238 6.3483,8.31015 11.14229,8.65361 2.01138,0.14409 3.65796,0.4035 3.65906,0.57646 0.001,0.17295 11.65879,40.39046 25.90598,89.37225 14.2472,48.98178 25.90399,90.17046 25.90399,91.53041 0,1.35995 2.05431,10.01132 4.56514,19.22525 6.10463,22.40211 5.43606,26.88326 -4.77556,32.0084 -6.1071,3.06512 -10.88056,2.24213 -15.88467,-2.73867 -2.92277,-2.90915 -4.28126,-5.68119 -6.8848,-14.04855 -3.55899,-11.43803 -3.80541,-15.71281 -1.52553,-26.46442 l 1.49991,-7.07339 -54.7212,-103.93458 c -30.09666,-57.16401 -55.18325,-104.39662 -55.74798,-104.96135 -0.70484,-0.70484 -1.02679,-0.49452 -1.02679,0.67079 0,4.31815 -19.92555,206.12217 -20.43298,206.94321 -0.3167,0.51244 0.11611,4.57932 0.96181,9.0375 2.1747,11.46408 1.97753,14.1379 -1.95939,26.57079 -2.74962,8.68335 -4.14035,11.58504 -6.50694,13.5764 -2.50642,2.10901 -9.07208,4.8189 -10.91848,4.50643 -0.27398,-0.0463 -1.8544,-0.47888 -3.51203,-0.96115 z"
     id="path854" />
  <path
     style="fill:#f7f7f7;stroke:none;stroke-width:0.996307;fill-opacity:1"
     d="m 647.50442,585.50371 c -1.69251,-1.03208 -4.09653,-3.16001 -5.34227,-4.72874 -2.01615,-2.53888 -2.20628,-3.61838 -1.73064,-9.82637 0.29478,-3.84757 2.61645,-14.12061 5.17872,-22.91506 5.6822,-19.50306 5.996,-11.49751 -3.98339,-101.62334 -9.82912,-88.76866 -9.96137,-90.46977 -9.95301,-128.02548 0.006,-27.97392 0.24906,-33.2612 1.78461,-38.85598 1.99255,-7.25985 8.38293,-24.78141 12.12039,-33.23245 l 2.45884,-5.55987 3.22024,2.94123 c 4.4714,4.084 15.02136,9.43954 22.73702,11.54214 4.69021,1.27812 10.18496,1.76779 19.92615,1.77572 14.59902,0.0119 23.1614,-1.38682 39.122,-6.39074 5.0486,-1.58282 9.46961,-2.5596 9.82444,-2.17063 1.40352,1.53853 18.94154,63.96607 18.44476,65.65514 -0.29192,0.99257 -1.04721,7.92126 -1.67843,15.39708 -1.03054,12.20531 -0.97576,13.95467 0.53685,17.14226 1.74259,3.67223 8.0443,7.62316 12.15891,7.62316 1.33137,0 2.22814,0.79294 2.53523,2.24169 0.26136,1.23293 10.6755,37.43624 23.14255,80.45181 25.37157,87.54055 35.68225,126.73721 35.81103,136.13772 0.0949,6.93323 -1.29162,9.19949 -7.59786,12.41808 -8.92382,4.55452 -16.12504,0.4292 -20.76465,-11.89532 -4.35341,-11.56425 -5.04111,-17.54045 -3.28664,-28.56114 l 1.5861,-9.96308 -28.63372,-54.29874 c -31.83217,-60.36404 -72.54948,-137.36389 -78.09497,-147.68414 -1.98206,-3.68867 -4.04616,-6.56748 -4.58689,-6.39736 -0.54072,0.17011 -1.98824,11.2582 -3.21671,24.6402 -1.22847,13.38199 -5.69051,58.62876 -9.91565,100.54839 -7.91311,78.50978 -8.22062,82.91891 -6.84873,98.19861 0.76292,8.49715 0.62872,9.61245 -2.27761,18.92984 -3.61505,11.58943 -4.93999,13.7267 -10.1606,16.39006 -4.85401,2.47633 -8.5651,2.50459 -12.51607,0.0953 z"
     id="path856" />
</svg>
