<?xml version="1.0" encoding="UTF-8" standalone="no"?>
<svg
   xmlns:dc="http://purl.org/dc/elements/1.1/"
   xmlns:cc="http://creativecommons.org/ns#"
   xmlns:rdf="http://www.w3.org/1999/02/22-rdf-syntax-ns#"
   xmlns:svg="http://www.w3.org/2000/svg"
   xmlns="http://www.w3.org/2000/svg"
   xmlns:sodipodi="http://sodipodi.sourceforge.net/DTD/sodipodi-0.dtd"
   xmlns:inkscape="http://www.inkscape.org/namespaces/inkscape"
   id="ab8ae2a1-21db-4159-bb67-e2c62dcc19dc"
   data-name="Layer 1"
   width="867.93857"
   height="588.5"
   viewBox="0 0 867.93857 588.5"
   version="1.1"
   sodipodi:docname="undraw_box.svg"
   inkscape:version="1.0.2 (e86c870879, 2021-01-15)">
  <metadata
     id="metadata55">
    <rdf:RDF>
      <cc:Work
         rdf:about="">
        <dc:format>image/svg+xml</dc:format>
        <dc:type
           rdf:resource="http://purl.org/dc/dcmitype/StillImage" />
        <dc:title></dc:title>
      </cc:Work>
    </rdf:RDF>
  </metadata>
  <defs
     id="defs53" />
  <sodipodi:namedview
     pagecolor="#ffffff"
     bordercolor="#666666"
     borderopacity="1"
     objecttolerance="10"
     gridtolerance="10"
     guidetolerance="10"
     inkscape:pageopacity="0"
     inkscape:pageshadow="2"
     inkscape:window-width="1920"
     inkscape:window-height="1050"
     id="namedview51"
     showgrid="false"
     inkscape:zoom="1.0037064"
     inkscape:cx="424.78198"
     inkscape:cy="317.16222"
     inkscape:window-x="1920"
     inkscape:window-y="0"
     inkscape:window-maximized="1"
     inkscape:current-layer="ab8ae2a1-21db-4159-bb67-e2c62dcc19dc"
     inkscape:snap-grids="true" />
  <path
     d="m 278.71761,532.24199 -4.0983,-3.83781 0.28133,2.36897 c 0,0 1.45666,0.52005 3.81655,1.46891 z"
     fill="none"
     id="path30"
     style="stroke-width:1.24627" />
  <polygon
     points="493.376,416.518 543.307,387.986 577.189,380.853 488.026,430.784 "
     fill="#fd7a33"
     id="polygon32"
     transform="matrix(1.1910912,0.01448972,-0.01323661,1.303852,-27.000021,-203.11629)" />
  <polygon
     points="299.002,416.518 249.071,387.986 215.189,380.853 304.352,430.784 "
     fill="#fd7a33"
     id="polygon34"
     transform="matrix(1.1910912,0.01448972,-0.01323661,1.303852,-27.000021,-203.11629)" />
  <polygon
     points="300.785,434.35 284.736,359.454 507.642,359.454 491.593,434.35 "
     fill="#fd7a33"
     id="polygon36"
     transform="matrix(1.1910912,0.01448972,-0.01323661,1.303852,-27.000021,-203.11629)" />
  <polygon
     points="300.785,434.35 284.736,359.454 507.642,359.454 491.593,434.35 "
     opacity="0.1"
     style="isolation:isolate"
     id="polygon38"
     transform="matrix(1.1910912,0.01448972,-0.01323661,1.303852,-27.000021,-203.11629)" />
  <rect
     x="328.16629"
     y="357.77069"
     width="229.41054"
     height="206.16052"
     fill="#fd7a33"
     id="rect40"
     transform="matrix(0.99992601,0.01216418,-0.0101514,0.99994847,0,0)"
     style="stroke-width:1.24628" />
  <rect
     x="394.70129"
     y="399.96335"
     width="95.817429"
     height="32.927807"
     fill="#ffffff"
     id="rect46"
     style="stroke-width:1.256"
     transform="matrix(0.99992601,0.01216418,-0.0101514,0.99994847,0,0)" />
  <path
     style="fill:#fd7a33;fill-opacity:1;stroke-width:0.877995"
     d="m 323.71682,463.50187 1.02576,-101.04141 114.53968,1.3934 114.53968,1.39338 -1.02575,101.04139 -1.02577,101.04136 -46.99064,-0.57164 -46.99064,-0.57165 0.29841,-29.39385 0.2984,-29.39386 -20.5584,-0.2501 -20.55841,-0.25008 -0.2984,29.39385 -0.29841,29.39386 -46.99064,-0.57165 -46.99064,-0.57164 z m 163.22728,-41.19191 0.16786,-16.53405 -48.24934,-0.58693 -48.24931,-0.58697 -0.16785,16.53405 -0.16785,16.53403 48.24932,0.58695 48.24932,0.58697 z"
     id="path896" />
  <path
     style="fill:#fd7a33;fill-opacity:1;stroke-width:0.877995"
     d="m 324.44022,359.93046 c -0.23363,-0.88707 -1.17558,-5.9627 -2.09321,-11.27921 -1.76062,-10.20042 -13.25648,-72.65024 -14.02529,-76.19067 l -0.45005,-2.07248 132.30869,1.60955 c 125.61421,1.5281 132.28588,1.69064 131.85831,3.21172 -0.24773,0.88122 -3.8605,18.3035 -8.02843,38.71621 -4.16792,20.4127 -8.20115,40.10359 -8.96274,43.75752 l -1.38469,6.64353 -114.39889,-1.39168 c -108.22391,-1.31655 -114.42185,-1.47866 -114.8237,-3.00449 z"
     id="path898" />
  <path
     style="fill:#fd7a33;fill-opacity:1;stroke-width:0.877995"
     d="m 555.96948,356.51198 c 1.59212,-10.80229 -0.3132,-9.0696 30.95661,-28.15162 l 28.2892,-17.26314 16.64004,-3.65017 c 9.15204,-2.0076 17.00772,-3.51101 17.4571,-3.34097 0.63784,0.24141 -40.62327,25.22509 -89.87324,54.41841 l -4.12688,2.44624 z"
     id="path900" />
</svg>
