<?xml version="1.0" encoding="UTF-8" standalone="no"?>
<svg
   xmlns:dc="http://purl.org/dc/elements/1.1/"
   xmlns:cc="http://creativecommons.org/ns#"
   xmlns:rdf="http://www.w3.org/1999/02/22-rdf-syntax-ns#"
   xmlns:svg="http://www.w3.org/2000/svg"
   xmlns="http://www.w3.org/2000/svg"
   xmlns:sodipodi="http://sodipodi.sourceforge.net/DTD/sodipodi-0.dtd"
   xmlns:inkscape="http://www.inkscape.org/namespaces/inkscape"
   width="1000"
   height="700"
   viewBox="0 0 264.58333 185.20834"
   version="1.1"
   id="svg8"
   inkscape:version="1.0.2 (e86c870879, 2021-01-15)">
  <defs
     id="defs2">
    <linearGradient
       id="ae8f1d99-169f-42eb-bca8-084a90728b1c"
       x1="815.82"
       y1="804.15"
       x2="815.82"
       y2="292.5"
       gradientUnits="userSpaceOnUse">
      <stop
         offset="0"
         stop-color="gray"
         stop-opacity="0.25"
         id="stop2" />
      <stop
         offset="0.54"
         stop-color="gray"
         stop-opacity="0.12"
         id="stop4" />
      <stop
         offset="1"
         stop-color="gray"
         stop-opacity="0.1"
         id="stop6" />
    </linearGradient>
  </defs>
  <sodipodi:namedview
     id="base"
     pagecolor="#ffffff"
     bordercolor="#666666"
     borderopacity="1.0"
     inkscape:pageopacity="0.0"
     inkscape:pageshadow="2"
     inkscape:zoom="0.94469466"
     inkscape:cx="507.25281"
     inkscape:cy="326.86015"
     inkscape:document-units="mm"
     inkscape:current-layer="g1373"
     inkscape:document-rotation="0"
     showgrid="false"
     units="px"
     inkscape:window-width="1920"
     inkscape:window-height="1050"
     inkscape:window-x="1920"
     inkscape:window-y="0"
     inkscape:window-maximized="1" />
  <metadata
     id="metadata5">
    <rdf:RDF>
      <cc:Work
         rdf:about="">
        <dc:format>image/svg+xml</dc:format>
        <dc:type
           rdf:resource="http://purl.org/dc/dcmitype/StillImage" />
        <dc:title></dc:title>
      </cc:Work>
    </rdf:RDF>
  </metadata>
  <g
     inkscape:label="Layer 1"
     inkscape:groupmode="layer"
     id="layer1">
    <g
       id="g1188"
       transform="matrix(0.26458333,0,0,0.26458333,15.88825,-36.041475)">
      <circle
         cx="126.79034"
         cy="516.40076"
         fill="#6c63ff"
         id="circle4"
         style="fill:#091220;fill-opacity:1;stroke-width:1.43191"
         r="0" />
      <circle
         cx="126.79034"
         cy="365.26166"
         fill="#6c63ff"
         id="circle6"
         style="fill:#091220;fill-opacity:1;stroke-width:1.43191"
         r="0" />
      <circle
         cx="126.79034"
         cy="214.12254"
         fill="#6c63ff"
         id="circle8"
         style="fill:#091220;fill-opacity:1;stroke-width:1.43191"
         r="0" />
      <g
         id="g1373"
         transform="translate(61.21604,81.068525)">
        <path
           d="m 484.1398,440.19402 a 2.0200448,1.9875196 0 0 0 -2.50224,1.35016 l -38.78882,130.85696 a 2.0200448,1.9875196 0 0 0 1.37225,2.46195 l 185.28839,53.16904 a 2.0200448,1.9875196 0 0 0 2.50224,-1.35016 l 38.78882,-130.85696 a 2.0200448,1.9875196 0 0 0 -1.37225,-2.46195 z"
           fill="#e6e6e6"
           id="path4"
           style="stroke-width:0.75356" />
        <path
           d="m 655.72638,502.13027 -27.56647,92.99753 a 2.4770884,2.4372043 0 0 1 -3.07098,1.65704 L 464.63932,550.74336 a 1.7615413,1.7331784 0 0 1 -0.32698,-0.12497 2.4733507,2.4335268 0 0 1 -1.35718,-2.89657 l 27.56648,-92.99753 a 2.4770581,2.4371744 0 0 1 3.07098,-1.65704 l 160.44961,46.04148 a 2.4770808,2.4371969 0 0 1 1.68415,3.02154 z"
           fill="#ffffff"
           id="path6"
           style="stroke-width:0.75356" />
        <ellipse
           cx="736.82373"
           cy="334.9028"
           fill="#ff6584"
           id="circle8-3"
           transform="matrix(0.96120882,0.27582168,-0.28419873,0.95876539,0,0)"
           style="fill:#fd7a33;fill-opacity:1;stroke-width:0.753574"
           rx="8.9675808"
           ry="8.8456774" />
        <ellipse
           cx="593.04633"
           cy="294.49747"
           fill="#3f3d56"
           id="circle10"
           transform="matrix(0.96120882,0.27582168,-0.28419873,0.95876539,0,0)"
           style="fill:#091220;fill-opacity:1;stroke-width:0.753574"
           rx="2.9565344"
           ry="2.9163442" />
        <ellipse
           cx="777.92822"
           cy="294.49747"
           fill="#3f3d56"
           id="circle12"
           transform="matrix(0.96120882,0.27582168,-0.28419873,0.95876539,0,0)"
           style="fill:#091220;fill-opacity:1;stroke-width:0.753574"
           rx="2.9565344"
           ry="2.9163442" />
        <ellipse
           cx="593.04633"
           cy="425.14963"
           fill="#3f3d56"
           id="circle14"
           transform="matrix(0.96120882,0.27582168,-0.28419873,0.95876539,0,0)"
           style="fill:#091220;fill-opacity:1;stroke-width:0.753574"
           rx="2.9565344"
           ry="2.9163442" />
        <ellipse
           cx="777.92822"
           cy="425.14963"
           fill="#3f3d56"
           id="circle16"
           transform="matrix(0.96120882,0.27582168,-0.28419873,0.95876539,0,0)"
           style="fill:#091220;fill-opacity:1;stroke-width:0.753574"
           rx="2.9565344"
           ry="2.9163442" />
        <ellipse
           cx="654.54688"
           cy="359.01495"
           fill="#6c63ff"
           id="circle18"
           transform="matrix(0.96120882,0.27582168,-0.28419873,0.95876539,0,0)"
           style="fill:#4c8076;fill-opacity:1;stroke-width:0.753574"
           rx="10.759169"
           ry="10.612912" />
        <polygon
           points="585.547,401.597 587.127,446.444 584.223,446.444 "
           fill="#3f3d56"
           id="polygon20"
           transform="matrix(0.72931639,0.20927947,-0.21270426,0.71757352,185.79583,112.45363)" />
        <polygon
           points="585.803,410.097 588.921,405.783 585.76,411.165 585.419,410.567 "
           fill="#3f3d56"
           id="polygon22"
           transform="matrix(0.72931639,0.20927947,-0.21270426,0.71757352,185.79583,112.45363)" />
        <polygon
           points="585.461,414.454 582.343,410.14 585.504,415.521 585.846,414.923 "
           fill="#3f3d56"
           id="polygon24"
           transform="matrix(0.72931639,0.20927947,-0.21270426,0.71757352,185.79583,112.45363)" />
        <ellipse
           cx="753.24219"
           cy="359.01495"
           fill="#6c63ff"
           id="circle26"
           transform="matrix(0.96120882,0.27582168,-0.28419873,0.95876539,0,0)"
           style="fill:#4c8076;fill-opacity:1;stroke-width:0.753574"
           rx="10.759169"
           ry="10.612912" />
        <polygon
           points="715.623,401.597 717.203,446.444 714.299,446.444 "
           fill="#3f3d56"
           id="polygon28"
           transform="matrix(0.72931639,0.20927947,-0.21270426,0.71757352,185.79583,112.45363)" />
        <polygon
           points="715.879,410.097 718.997,405.783 715.837,411.165 715.495,410.567 "
           fill="#3f3d56"
           id="polygon30"
           transform="matrix(0.72931639,0.20927947,-0.21270426,0.71757352,185.79583,112.45363)" />
        <polygon
           points="715.538,414.454 712.42,410.14 715.58,415.521 715.922,414.923 "
           fill="#3f3d56"
           id="polygon32"
           transform="matrix(0.72931639,0.20927947,-0.21270426,0.71757352,185.79583,112.45363)" />
        <ellipse
           cx="685.71429"
           cy="349.75702"
           fill="#6c63ff"
           id="circle34"
           transform="matrix(0.96120882,0.27582168,-0.28419873,0.95876539,0,0)"
           style="fill:#4c8076;fill-opacity:1;stroke-width:0.753574"
           rx="15.8904"
           ry="15.674391" />
        <polygon
           points="626.522,388.209 628.856,454.444 624.567,454.444 "
           fill="#3f3d56"
           id="polygon36"
           transform="matrix(0.72931639,0.20927947,-0.21270426,0.71757352,185.79583,112.45363)" />
        <polygon
           points="626.901,400.762 631.506,394.391 626.838,402.339 626.333,401.456 "
           fill="#3f3d56"
           id="polygon38"
           transform="matrix(0.72931639,0.20927947,-0.21270426,0.71757352,185.79583,112.45363)" />
        <polygon
           points="626.396,407.197 621.791,400.825 626.459,408.774 626.964,407.891 "
           fill="#3f3d56"
           id="polygon40"
           transform="matrix(0.72931639,0.20927947,-0.21270426,0.71757352,185.79583,112.45363)" />
        <ellipse
           cx="724.46576"
           cy="343.76956"
           fill="#6c63ff"
           id="circle42"
           transform="matrix(0.96120882,0.27582168,-0.28419873,0.95876539,0,0)"
           style="fill:#4c8076;fill-opacity:1;stroke-width:0.753574"
           rx="15.8904"
           ry="15.674391" />
        <polygon
           points="677.595,380.209 679.929,446.444 675.64,446.444 "
           fill="#3f3d56"
           id="polygon44"
           transform="matrix(0.72931639,0.20927947,-0.21270426,0.71757352,185.79583,112.45363)" />
        <polygon
           points="677.974,392.762 682.578,386.391 677.91,394.339 677.406,393.456 "
           fill="#3f3d56"
           id="polygon46"
           transform="matrix(0.72931639,0.20927947,-0.21270426,0.71757352,185.79583,112.45363)" />
        <polygon
           points="677.469,399.197 672.864,392.825 677.532,400.774 678.037,399.891 "
           fill="#3f3d56"
           id="polygon48"
           transform="matrix(0.72931639,0.20927947,-0.21270426,0.71757352,185.79583,112.45363)" />
        <ellipse
           cx="623.95404"
           cy="343.76956"
           fill="#6c63ff"
           id="circle50"
           transform="matrix(0.96120882,0.27582168,-0.28419873,0.95876539,0,0)"
           style="fill:#4c8076;fill-opacity:1;stroke-width:0.753574"
           rx="15.8904"
           ry="15.674391" />
        <polygon
           points="545.125,380.209 547.459,446.444 543.169,446.444 "
           fill="#3f3d56"
           id="polygon52"
           transform="matrix(0.72931639,0.20927947,-0.21270426,0.71757352,185.79583,112.45363)" />
        <polygon
           points="545.503,392.762 550.108,386.391 545.44,394.339 544.935,393.456 "
           fill="#3f3d56"
           id="polygon54"
           transform="matrix(0.72931639,0.20927947,-0.21270426,0.71757352,185.79583,112.45363)" />
        <polygon
           points="544.999,399.197 540.394,392.825 545.062,400.774 545.566,399.891 "
           fill="#3f3d56"
           id="polygon56"
           transform="matrix(0.72931639,0.20927947,-0.21270426,0.71757352,185.79583,112.45363)" />
        <path
           d="m 545.93622,574.07173 -81.2969,-23.32838 a 1.7615413,1.7331784 0 0 1 -0.32698,-0.12497 2.4733507,2.4335268 0 0 1 -1.35717,-2.89657 l 5.91956,-19.97007 a 144.16017,141.83902 0 0 1 23.69727,4.79119 c 28.85906,8.28119 50.58736,23.34562 53.41184,35.97541 a 11.586822,11.40026 0 0 1 -0.0476,5.55339 z"
           fill="#3f3d56"
           id="path58"
           style="fill:#091220;fill-opacity:1;stroke-width:0.75356" />
        <path
           d="m 629.50208,590.5999 -1.34217,4.52789 a 2.4770884,2.4372043 0 0 1 -3.07098,1.65704 l -89.94659,-25.81044 a 47.755325,46.986406 0 0 1 10.8415,-2.45606 c 12.39833,-1.48765 28.79935,0.0731 46.01851,5.01417 14.96557,4.29443 28.00822,10.40402 37.49973,17.0674 z"
           fill="#3f3d56"
           id="path60"
           style="fill:#091220;fill-opacity:1;stroke-width:0.75356" />
        <path
           d="m 634.34087,193.65698 a 2.2619403,2.1319042 0 0 0 -1.06297,0.25165 l -191.639,96.07758 a 2.27309,2.142413 0 0 0 -0.93699,2.89315 l 73.16946,129.64848 a 2.2728508,2.1421875 0 0 0 3.07046,0.8843 L 708.58,327.33456 a 2.2726714,2.1420184 0 0 0 0.93782,-2.89315 l -73.1703,-129.64848 a 2.2541141,2.124528 0 0 0 -1.34082,-1.04159 2.2803011,2.1492095 0 0 0 -0.66583,-0.0944 z"
           fill="#e6e6e6"
           id="path62"
           style="stroke-width:0.829465" />
        <path
           d="m 629.241,210.80919 51.99875,92.1354 a 2.7867394,2.6265333 0 0 1 -1.15199,3.55354 l -165.94559,83.19652 a 2.3497457,2.2146618 0 0 1 -0.36731,0.15098 2.7850392,2.6249308 0 0 1 -3.40296,-1.23674 l -51.99876,-92.1354 a 2.7867052,2.6265011 0 0 1 1.15201,-3.55351 l 165.94557,-83.19653 a 2.7867309,2.6265253 0 0 1 3.77028,1.08574 z"
           fill="#ffffff"
           id="path64"
           style="stroke-width:0.829465" />
        <circle
           cx="518.32672"
           cy="307.61377"
           fill="#ff6584"
           id="circle66"
           style="fill:#fd7a33;fill-opacity:1;stroke-width:0.829465"
           rx="24.456327"
           ry="23.050365" />
        <path
           d="m 621.42909,336.38041 -105.92238,53.10401 a 2.4473851,2.3066881 0 0 1 -0.41249,0.16889 L 519.033,282.75188 a 3.9729884,3.7445864 0 0 1 6.10578,-3.06113 l 64.59635,38.02873 3.09288,1.81869 z"
           fill="#3f3d56"
           id="path68"
           style="fill:#091220;fill-opacity:1;stroke-width:0.829465" />
        <polygon
           points="588.408,158.518 588.747,155.548 588.916,154.063 592.536,156.322 626.012,177.237 583.684,199.752 "
           opacity="0.2"
           id="polygon70"
           transform="matrix(0.85438774,0,0,0.80527009,86.572367,193.65698)" />
        <path
           d="m 680.40597,306.81247 -91.61418,45.93062 4.03624,-33.20493 0.28945,-2.39133 5.25817,-43.27148 c 0.3451,-2.83622 3.92072,-4.7947 6.72739,-3.87507 a 4.7339318,4.4617841 0 0 1 0.5541,0.22451 z"
           fill="#3f3d56"
           id="path72"
           style="fill:#091220;fill-opacity:1;stroke-width:0.829465" />
        <circle
           cx="447.99185"
           cy="292.77863"
           fill="#3f3d56"
           id="circle74"
           rx="3.3291988"
           ry="3.1378074"
           style="stroke-width:0.829465" />
        <circle
           cx="631.79248"
           cy="200.63055"
           fill="#3f3d56"
           id="circle76"
           rx="3.3291988"
           ry="3.1378074"
           style="stroke-width:0.829465" />
        <circle
           cx="518.03516"
           cy="416.88663"
           fill="#3f3d56"
           id="circle78"
           rx="3.3291988"
           ry="3.1378074"
           style="stroke-width:0.829465" />
        <circle
           cx="701.83569"
           cy="324.73856"
           fill="#3f3d56"
           id="circle80"
           rx="3.3291988"
           ry="3.1378074"
           style="stroke-width:0.829465" />
        <ellipse
           cx="77.088829"
           cy="324.6091"
           fill="#6c63ff"
           id="circle132"
           style="fill:#fd7a33;fill-opacity:1;stroke-width:0.898036"
           rx="10.904925"
           ry="10.649445" />
        <path
           d="M 81.691791,314.96502 A 10.890386,10.635245 0 0 1 69.75954,332.47809 10.895538,10.640277 0 1 0 81.691791,314.96502 Z"
           opacity="0.2"
           id="path134"
           style="fill:#fd7a33;fill-opacity:1;stroke-width:0.898036" />
        <ellipse
           cx="357.43628"
           cy="336.146"
           rx="26.807941"
           ry="10.649445"
           fill="#3f3d56"
           id="ellipse136"
           style="fill:#fd7a33;fill-opacity:1;stroke-width:0.898036" />
        <path
           d="m 357.43632,325.49654 q -1.3805,0 -2.72623,0.0546 c 13.52505,0.54268 24.08171,5.07897 24.08171,10.59489 0,5.51592 -10.55666,10.05219 -24.08171,10.5949 q 1.34474,0.054 2.72623,0.0546 c 14.80563,0 26.80794,-4.76795 26.80794,-10.64944 0,-5.8815 -12.00233,-10.64945 -26.80794,-10.64945 z"
           opacity="0.2"
           id="path138"
           style="fill:#fd7a33;fill-opacity:1;stroke-width:0.898036" />
        <path
           d="M 392.42295,336.14598 H 257.92887 v -14.19926 a 2.7262314,2.662361 0 0 0 -2.72623,-2.66236 h -74.51699 a 2.7262314,2.662361 0 0 0 -2.72623,2.66236 v 14.19926 H 99.807453 v -8.87453 a 2.7262314,2.662361 0 0 0 -2.726231,-2.66236 H 57.096495 a 2.7262314,2.662361 0 0 0 -2.726231,2.66236 v 8.87453 H 43.465338 a 2.7225964,2.6588112 0 0 0 -2.726231,2.66236 v 174.82838 a 2.7225964,2.6588112 0 0 0 2.726231,2.66236 H 392.42295 a 2.7225964,2.6588112 0 0 0 2.72624,-2.66236 V 338.80834 a 2.7225964,2.6588112 0 0 0 -2.72624,-2.66236 z"
           fill="#3f3d56"
           id="path140"
           style="fill:#091220;fill-opacity:1;stroke-width:0.898036" />
        <path
           d="M 392.40778,503.26076 H 43.450162 a 2.7225964,2.6588112 0 0 1 -2.726231,-2.66236 v 12.42435 a 2.7225964,2.6588112 0 0 0 2.726231,2.66236 H 392.40778 a 2.7225964,2.6588112 0 0 0 2.72623,-2.66236 V 500.5984 a 2.7225964,2.6588112 0 0 1 -2.72623,2.66236 z"
           opacity="0.2"
           id="path142"
           style="stroke-width:0.898036" />
        <rect
           x="40.739079"
           y="417.79175"
           width="354.4101"
           height="33.72324"
           opacity="0.2"
           id="rect144"
           style="stroke-width:0.898036" />
        <rect
           x="40.739079"
           y="400.93011"
           width="354.4101"
           height="33.72324"
           opacity="0.2"
           id="rect146"
           style="stroke-width:0.898036" />
        <rect
           x="40.739079"
           y="408.91721"
           width="354.4101"
           height="33.72324"
           fill="#6c63ff"
           id="rect148"
           style="fill:#fd7a33;fill-opacity:1;stroke-width:0.898036" />
        <ellipse
           cx="217.94412"
           cy="425.77884"
           fill="#6c63ff"
           id="circle150"
           style="fill:#fd7a33;fill-opacity:1;stroke-width:0.898036"
           rx="69.064529"
           ry="67.44648" />
        <path
           d="M 271.1423,382.76907 A 69.060612,67.442655 0 0 1 158.38474,459.91396 69.061102,67.443134 0 1 0 271.1423,382.76907 Z"
           opacity="0.2"
           id="path152"
           style="fill:#fd7a33;fill-opacity:1;stroke-width:0.898036" />
        <ellipse
           cx="217.94412"
           cy="425.77884"
           fill="#3f3d56"
           id="circle154"
           style="fill:#091220;fill-opacity:1;stroke-width:0.898036"
           rx="51.396858"
           ry="50.19273" />
        <path
           d="m 257.92887,425.7788 a 39.733005,38.802137 0 0 1 -3.24421,15.41508 39.195029,38.276765 0 0 1 -4.31654,7.42798 39.983291,39.04656 0 1 1 -55.81504,-54.5074 39.189349,38.271218 0 0 1 7.60619,-4.21541 39.989425,39.05255 0 0 1 55.7696,35.87975 z"
           fill="#ffffff"
           id="path156"
           style="stroke-width:0.898036" />
        <path
           d="m 257.50176,420.0902 a 39.919588,38.984349 0 0 0 -14.94657,-25.08422 39.986644,39.049834 0 0 1 3.04203,36.4259 39.195029,38.276765 0 0 1 -4.31653,7.42799 39.960191,39.024001 0 0 1 -57.04121,7.91478 39.965098,39.028793 0 0 0 66.12864,1.84721 39.195029,38.276765 0 0 0 4.31654,-7.42798 40.000839,39.063697 0 0 0 2.8171,-21.10365 z"
           opacity="0.2"
           id="path158"
           style="stroke-width:0.898036" />
      </g>
    </g>
  </g>
</svg>
