<?xml version="1.0" encoding="UTF-8" standalone="no"?>
<svg
   xmlns:dc="http://purl.org/dc/elements/1.1/"
   xmlns:cc="http://creativecommons.org/ns#"
   xmlns:rdf="http://www.w3.org/1999/02/22-rdf-syntax-ns#"
   xmlns:svg="http://www.w3.org/2000/svg"
   xmlns="http://www.w3.org/2000/svg"
   xmlns:sodipodi="http://sodipodi.sourceforge.net/DTD/sodipodi-0.dtd"
   xmlns:inkscape="http://www.inkscape.org/namespaces/inkscape"
   width="1000"
   height="700"
   viewBox="0 0 264.58333 185.20834"
   version="1.1"
   id="svg8"
   inkscape:version="1.0.2 (e86c870879, 2021-01-15)">
  <defs
     id="defs2">
    <linearGradient
       id="ae8f1d99-169f-42eb-bca8-084a90728b1c"
       x1="815.82"
       y1="804.15"
       x2="815.82"
       y2="292.5"
       gradientUnits="userSpaceOnUse">
      <stop
         offset="0"
         stop-color="gray"
         stop-opacity="0.25"
         id="stop2" />
      <stop
         offset="0.54"
         stop-color="gray"
         stop-opacity="0.12"
         id="stop4" />
      <stop
         offset="1"
         stop-color="gray"
         stop-opacity="0.1"
         id="stop6" />
    </linearGradient>
  </defs>
  <sodipodi:namedview
     id="base"
     pagecolor="#ffffff"
     bordercolor="#666666"
     borderopacity="1.0"
     inkscape:pageopacity="0.0"
     inkscape:pageshadow="2"
     inkscape:zoom="0.94469466"
     inkscape:cx="507.25281"
     inkscape:cy="326.86015"
     inkscape:document-units="mm"
     inkscape:current-layer="g1188"
     inkscape:document-rotation="0"
     showgrid="false"
     units="px"
     inkscape:window-width="1920"
     inkscape:window-height="1050"
     inkscape:window-x="1920"
     inkscape:window-y="0"
     inkscape:window-maximized="1" />
  <metadata
     id="metadata5">
    <rdf:RDF>
      <cc:Work
         rdf:about="">
        <dc:format>image/svg+xml</dc:format>
        <dc:type
           rdf:resource="http://purl.org/dc/dcmitype/StillImage" />
        <dc:title></dc:title>
      </cc:Work>
    </rdf:RDF>
  </metadata>
  <g
     inkscape:label="Layer 1"
     inkscape:groupmode="layer"
     id="layer1">
    <g
       id="g1188"
       transform="matrix(0.26458333,0,0,0.26458333,15.88825,-36.041475)">
      <circle
         cx="126.79034"
         cy="516.40076"
         fill="#6c63ff"
         id="circle4"
         style="fill:#091220;fill-opacity:1;stroke-width:1.43191"
         r="0" />
      <circle
         cx="126.79034"
         cy="365.26166"
         fill="#6c63ff"
         id="circle6"
         style="fill:#091220;fill-opacity:1;stroke-width:1.43191"
         r="0" />
      <circle
         cx="126.79034"
         cy="214.12254"
         fill="#6c63ff"
         id="circle8"
         style="fill:#091220;fill-opacity:1;stroke-width:1.43191"
         r="0" />
      <path
         d="m 295.36584,279.48485 a 7.4701129,6.8780528 0 0 0 -7.46132,6.86996 v 76.3706 a 7.4701129,6.8780528 0 0 0 7.46132,6.86996 h 397.13625 a 7.4701129,6.8780528 0 0 0 7.46132,-6.86996 v -76.3706 a 7.4701129,6.8780528 0 0 0 -7.46132,-6.86996 z"
         fill="#e6e6e6"
         id="path10"
         style="stroke-width:1.43191" />
      <path
         d="m 298.04873,284.84193 a 4.3311789,3.9879018 0 0 0 -4.32676,3.98311 v 71.43014 a 4.3311938,3.9879155 0 0 0 4.3267,3.9831 H 689.8192 a 4.3299403,3.9867614 0 0 0 4.32524,-3.9831 v -71.43014 a 4.3299254,3.9867476 0 0 0 -4.32524,-3.98311 z"
         fill="#ffffff"
         id="path12"
         style="fill:#091220;fill-opacity:1;stroke-width:1.43191" />
      <path
         d="m 665.22126,344.65105 a 7.0290442,6.4719419 0 1 0 0,-12.94387 H 333.85259 a 7.0290442,6.4719419 0 0 0 0,12.94387 z"
         fill="#e6e6e6"
         id="path14"
         style="stroke-width:1.43191" />
      <path
         d="m 476.44152,316.53392 a 7.0290312,6.47193 0 0 0 0,-12.94386 H 333.85263 a 7.0290312,6.47193 0 1 0 0,12.94386 z"
         fill="#6c63ff"
         id="path16"
         style="fill:#fd7a33;fill-opacity:1;stroke-width:1.43191" />
      <path
         d="m 295.36584,430.62397 a 7.4701129,6.8780528 0 0 0 -7.46132,6.86997 v 76.37058 a 7.4701129,6.8780528 0 0 0 7.46132,6.86997 h 397.13625 a 7.4701129,6.8780528 0 0 0 7.46132,-6.86997 v -76.37058 a 7.4701129,6.8780528 0 0 0 -7.46132,-6.86997 z"
         fill="#e6e6e6"
         id="path18"
         style="stroke-width:1.43191" />
      <path
         d="m 298.04873,435.98106 a 4.3311789,3.9879018 0 0 0 -4.32676,3.9831 v 71.43014 a 4.3311938,3.9879155 0 0 0 4.3267,3.9831 H 689.8192 a 4.3299403,3.9867614 0 0 0 4.32524,-3.9831 v -71.43014 a 4.3299254,3.9867476 0 0 0 -4.32524,-3.9831 z"
         fill="#ffffff"
         id="path20"
         style="fill:#091220;fill-opacity:1;stroke-width:1.43191" />
      <path
         d="m 665.22126,495.79017 a 7.0290442,6.4719419 0 1 0 0,-12.94387 H 333.85259 a 7.0290442,6.4719419 0 0 0 0,12.94387 z"
         fill="#e6e6e6"
         id="path22"
         style="stroke-width:1.43191" />
      <path
         d="m 476.44152,467.67304 a 7.0290312,6.47193 0 0 0 0,-12.94386 H 333.85263 a 7.0290312,6.47193 0 1 0 0,12.94386 z"
         fill="#6c63ff"
         id="path24"
         style="fill:#fd7a33;fill-opacity:1;stroke-width:1.43191" />
      <path
         d="m 295.36584,581.76309 a 7.4701129,6.8780528 0 0 0 -7.46132,6.86996 v 76.3706 a 7.4701129,6.8780528 0 0 0 7.46132,6.86996 h 397.13625 a 7.4701129,6.8780528 0 0 0 7.46132,-6.86996 v -76.3706 a 7.4701129,6.8780528 0 0 0 -7.46132,-6.86996 z"
         fill="#e6e6e6"
         id="path26"
         style="stroke-width:1.43191" />
      <path
         d="m 298.04873,587.12018 a 4.3311789,3.9879018 0 0 0 -4.32676,3.9831 v 71.43014 a 4.3311938,3.9879155 0 0 0 4.3267,3.98311 H 689.8192 a 4.3299403,3.9867614 0 0 0 4.32524,-3.98311 v -71.43014 a 4.3299254,3.9867476 0 0 0 -4.32524,-3.9831 z"
         fill="#ffffff"
         id="path28"
         style="fill:#091220;fill-opacity:1;stroke-width:1.43191" />
      <path
         d="m 665.22126,646.92929 a 7.0290442,6.4719419 0 1 0 0,-12.94387 H 333.85259 a 7.0290442,6.4719419 0 0 0 0,12.94387 z"
         fill="#e6e6e6"
         id="path30"
         style="stroke-width:1.43191" />
      <path
         d="m 476.44152,618.81215 a 7.0290293,6.4719282 0 0 0 0,-12.94385 H 333.85263 a 7.0290293,6.4719282 0 1 0 0,12.94385 z"
         fill="#6c63ff"
         id="path32"
         style="fill:#fd7a33;fill-opacity:1;stroke-width:1.43191" />
      <path
         style="fill:#091220;fill-opacity:1;stroke-width:0.592413"
         d="m 293.24394,368.93534 c -1.03192,-0.29875 -2.56479,-1.36151 -3.40637,-2.36167 l -1.53015,-1.81848 v -40.15872 -40.15872 l 1.28429,-1.63271 c 2.7575,-3.5056 -12.1753,-3.26638 203.89363,-3.26638 109.28469,0 199.54853,0.16982 200.58633,0.37738 1.03779,0.20756 2.67063,1.16112 3.62853,2.11902 l 1.74163,1.74163 v 40.7444 40.7444 l -1.40834,1.51962 c -0.77458,0.8358 -2.44074,1.80629 -3.70258,2.15665 -2.93212,0.81414 -398.27456,0.80782 -401.08697,-0.006 z m 400.03384,-5.92868 c 1.08459,-1.19845 1.12854,-2.69755 1.12854,-38.49037 v -37.24335 l -1.34938,-1.34938 -1.34939,-1.34939 H 493.92037 c -193.66759,0 -197.81317,0.0235 -199.03421,1.12854 -1.24282,1.12474 -1.24703,1.25533 -1.24703,38.75639 0,34.18175 0.0898,37.72706 0.98044,38.71121 0.94611,1.04544 7.92219,1.08337 199.25506,1.08337 h 198.27461 z"
         id="path894" />
      <path
         style="fill:#fd7a33;fill-opacity:1;stroke-width:0.592413"
         d="m 292.42434,519.71524 c -4.31827,-1.79499 -4.11692,0.37584 -4.11692,-44.38672 v -40.1038 l 2.0142,-2.0142 2.01421,-2.0142 h 201.22229 c 147.03662,0 201.57075,0.17819 202.51628,0.66174 0.71169,0.36397 1.75458,1.23037 2.31753,1.92535 0.94735,1.16952 1.02453,4.30001 1.03673,42.05048 l 0.0132,40.7869 -1.75609,1.64043 c -0.96585,0.90224 -2.59869,1.80895 -3.62853,2.01492 -1.02984,0.20597 -91.34527,0.36075 -200.70095,0.34397 -173.90032,-0.0267 -199.0922,-0.14015 -200.9319,-0.90487 z m 400.63261,-5.4495 1.34937,-1.34939 v -37.24334 c 0,-35.79282 -0.0439,-37.29192 -1.12854,-38.49037 l -1.12854,-1.24702 H 493.97756 c -183.5695,0 -198.25152,0.0722 -199.25506,0.98043 -1.02794,0.93028 -1.08337,2.91061 -1.08337,38.71122 0,35.19508 0.0697,37.79147 1.03673,38.63391 0.57019,0.49672 1.4366,1.05078 1.92534,1.23125 0.48874,0.18047 89.58761,0.2819 197.9975,0.22541 l 197.10888,-0.10272 z"
         id="path896" />
      <path
         style="fill:#fd7a33;fill-opacity:1;stroke-width:0.592413"
         d="m 291.97925,670.72488 c -3.8089,-1.87713 -3.67183,-0.22129 -3.67183,-44.3584 v -40.07652 l 2.0142,-2.0142 2.01421,-2.01421 h 201.5388 201.53879 l 2.01421,2.01421 2.0142,2.0142 v 40.50769 c 0,36.49094 -0.0958,40.64447 -0.96604,41.88692 -2.26234,3.22993 11.13935,3.03238 -204.73024,3.01781 -183.34153,-0.0124 -199.97143,-0.0929 -201.7663,-0.9775 z m 400.035,-4.4383 c 0.95898,-0.43694 1.7409,-1.46894 2.13206,-2.81396 0.40767,-1.40179 0.55689,-14.37879 0.43886,-38.16561 l -0.17885,-36.04164 -1.39855,-1.13226 c -1.37067,-1.10968 -5.34054,-1.13226 -199.06696,-1.13226 -177.94653,0 -197.79976,0.092 -198.98504,0.92222 l -1.31664,0.92221 v 37.83782 37.83782 l 1.56093,1.22783 1.56092,1.22782 h 196.86946 c 148.54503,0 197.24117,-0.16937 198.38381,-0.68999 z"
         id="path898" />
      <path
         style="fill:#091220;fill-opacity:1;stroke-width:0.837798"
         d="m 227.02654,344.84483 c -5.65083,-2.01724 -9.97433,-5.50951 -13.15759,-10.62793 -2.17535,-3.49781 -2.51339,-4.83899 -2.51339,-9.97201 0,-6.8314 1.59831,-10.82432 6.15803,-15.38404 11.6908,-11.6908 32.7193,-8.43814 39.97387,6.18311 2.56656,5.17278 2.25876,13.91725 -0.66492,18.89067 -5.95851,10.13589 -18.79666,14.83674 -29.796,10.9102 z"
         id="path900" />
      <path
         style="fill:#091220;fill-opacity:1;stroke-width:0.837798"
         d="m 226.28866,495.81218 c -1.92415,-0.6818 -5.27733,-2.80547 -7.45152,-4.71927 -12.22141,-10.75771 -9.79392,-27.77616 5.08539,-35.65231 3.58093,-1.89552 5.22268,-2.21738 11.31027,-2.21738 6.08759,0 7.72934,0.32186 11.31028,2.21738 14.86965,7.87104 17.30637,24.89498 5.10111,35.63848 -2.16555,1.90619 -5.68015,4.05962 -7.81022,4.78541 -4.77162,1.62586 -12.87749,1.60169 -17.54531,-0.0523 z"
         id="path902" />
      <path
         style="fill:#091220;fill-opacity:1;stroke-width:0.837798"
         d="m 228.75289,647.53423 c -21.49486,-5.78888 -23.99868,-31.75306 -3.99256,-41.40226 6.3184,-3.04744 15.06099,-2.88735 21.66123,0.39664 19.58373,9.744 16.40309,35.45493 -5.0782,41.0501 -5.72823,1.49201 -6.90066,1.48787 -12.59047,-0.0445 z"
         id="path904" />
      <path
         style="fill:#091220;fill-opacity:1;stroke-width:1.05854"
         d="m 296.05152,519.40819 c -2.429,-0.22064 -4.89819,-0.98174 -5.4871,-1.69133 -0.65052,-0.78383 -1.35878,-17.06696 -1.80471,-41.49098 l -0.73399,-40.20082 2.75422,-2.54125 2.75421,-2.54125 201.23775,0.56506 c 151.18822,0.42452 201.54497,0.87201 202.47297,1.79925 0.88828,0.88755 1.31951,12.80211 1.53531,42.41994 l 0.30011,41.18575 -3.15853,1.63333 c -2.8172,1.45683 -24.35555,1.61336 -199.3062,1.44841 -107.88122,-0.10172 -198.13504,-0.36546 -200.56404,-0.58611 z m 397.45341,-4.73338 c 1.82119,-1.82119 1.82119,-76.08758 0,-77.90877 -0.97882,-0.97883 -46.24068,-1.27025 -197.28597,-1.27025 -107.80864,0 -197.50429,0.29771 -199.32366,0.66159 l -3.30795,0.66158 v 38.94557 c 0,30.166 0.29829,39.06592 1.32318,39.47948 0.72775,0.29365 90.4234,0.57152 199.32367,0.61748 152.68239,0.0644 198.29121,-0.20716 199.27073,-1.18668 z"
         id="path1190" />
      <path
         style="fill:#091220;fill-opacity:1;stroke-width:1.05854"
         d="m 307.72026,670.7597 c -11.05103,-0.22145 -16.37142,-0.72601 -17.11601,-1.62319 -0.66107,-0.79654 -1.3803,-16.82124 -1.85295,-41.2845 l -0.77251,-39.98264 2.45953,-2.61805 2.45953,-2.61805 h 201.30388 c 195.16824,0 201.35838,0.0602 203.09212,1.976 1.62511,1.79571 1.76079,5.71058 1.48724,42.91032 -0.23706,32.23869 -0.59401,41.11525 -1.6803,41.78606 -2.82199,1.74262 -54.71354,2.23429 -211.91714,2.00788 -88.7853,-0.12787 -168.64382,-0.3771 -177.46339,-0.55383 z m 385.78467,-4.71323 c 0.94129,-0.94129 1.27025,-11.21607 1.27025,-39.6752 v -38.40494 l -2.38172,-0.57431 c -1.30995,-0.31587 -91.45812,-0.44403 -200.32928,-0.2848 l -197.94755,0.2895 -0.27799,38.51227 c -0.19882,27.54416 0.0642,38.92458 0.92352,39.96 1.66624,2.0077 396.73672,2.18354 398.74277,0.17748 z"
         id="path1192" />
    </g>
  </g>
</svg>
